<svg width="790" height="812" viewBox="0 0 790 812" fill="none" xmlns="http://www.w3.org/2000/svg">
<g clip-path="url(#clip0_22:128)">
<rect width="790" height="812" fill="#3A0B75"/>
<rect width="790" height="812" fill="url(#paint0_linear_22:128)" fill-opacity="0.2"/>
<g opacity="0.03">
<path fill-rule="evenodd" clip-rule="evenodd" d="M673.747 92.2806C653.893 113.773 633.95 135.214 613.791 156.998C640.407 178.388 655.99 207.476 674.535 234.43C688.581 254.791 703.973 274.251 718.578 294.244C721.654 298.41 724.806 298.651 729.548 297.127C747.597 291.259 765.748 285.784 783.912 280.322C785.704 279.776 787.877 280.475 789.848 280.614L790 283.028C787.992 283.764 785.958 284.603 783.937 285.238C765.392 291.03 746.898 297 728.2 302.424C722.709 304.024 720.307 306.539 719.112 312.166C709.159 360.371 714.295 407.762 725.099 455.204C728.2 468.897 733.094 477.039 748.665 477.878C759.392 478.411 769.942 481.879 780.543 484.051C780.747 484.775 780.937 485.499 781.09 486.248C779.348 486.845 777.442 488.115 775.853 487.823C762.717 485.463 749.623 482.875 736.577 480.062C731.81 479.033 728.06 479.707 724.018 482.577C696.334 502.291 676.925 528.483 662.13 558.066C652.253 577.754 644.055 598.204 635.094 618.286C633.848 621.106 632.386 623.837 630.747 627.267C650.588 645.1 670.837 663.29 691.123 681.479C688.784 686.814 686.534 684.439 684.018 682.203C668.625 668.421 653.181 654.729 637.839 640.947C624.951 629.413 625.001 629.388 609.443 637.593C588.318 648.759 567.015 659.555 546.157 671.14C528.425 680.933 512.969 693.445 500.232 709.17C497.576 712.472 496.928 715.152 498.491 719.319C506.728 740.912 514.634 762.62 522.616 784.277C522.769 784.696 523.061 785.09 523.112 785.547C523.315 788.253 523.455 791.022 523.608 793.753C521.841 791.657 519.413 789.853 518.523 787.478C510.167 765.937 502.108 744.282 494.347 722.52C492.53 717.413 490.077 715.864 484.687 715.927C448.843 716.245 414.155 723.841 379.429 731.538C360.249 735.793 341.043 740.302 321.875 744.507C317.973 745.332 316.308 747.085 315.418 750.858C311.122 769.009 306.533 787.046 302.046 805.121C301.449 807.446 300.813 809.757 300.267 811.955C294.445 812.412 295.78 809.313 296.517 806.404C301.398 786.602 306.482 766.85 310.867 746.895C311.91 742.322 311.617 736.695 309.876 732.338C294.038 692.301 262.477 672.232 220.392 666.072C205.152 663.849 189.81 662.426 174.57 660.356C170.477 659.759 167.96 660.902 165.253 663.849C147.211 683.452 129.06 702.954 110.8 722.354C109.363 723.802 106.948 724.374 105.029 725.352C104.533 724.603 103.987 723.879 103.491 723.129C124.261 700.697 145.068 678.278 166.435 655.186C162.151 650.245 158.097 645.304 153.724 640.655C138.929 625.361 123.739 610.475 109.236 594.876C86.5985 570.526 79.0483 557.418 62.8802 517.343C59.8677 518.207 56.7155 519.032 53.614 520.01C38.0815 524.837 22.5362 529.753 7.00364 534.427C5.03347 535.05 2.61842 534.376 0.444877 534.275C2.22439 532.827 3.80052 530.756 5.82153 530.07C22.587 524.596 39.3653 519.223 56.2833 514.193C60.9736 512.821 63.1471 510.344 64.3674 505.771C73.0488 473.876 71.371 442.007 64.1767 410.29C59.3974 389.293 53.4742 368.589 47.6018 347.884C46.9663 345.725 43.6107 343.324 41.0685 342.766C27.6841 339.654 14.109 337.151 0.597406 334.433L0 332.261C1.72867 331.702 3.59715 330.432 5.186 330.686C14.9987 332.363 24.8114 333.988 34.4843 336.402C40.5092 337.926 44.297 336.796 48.8348 332.21C73.2013 307.441 92.1912 279.42 104.673 247.259C114.346 222.388 119.621 196.615 121.197 170.144C121.337 167.134 119.659 163.247 117.498 161.024C103.491 146.557 89.0898 132.432 74.6249 117.99C76.2519 114.268 78.2729 115.843 80.7388 118.231C94.4029 131.517 108.067 144.829 121.922 157.887C123.6 159.462 126.663 160.999 128.722 160.618C176.565 151.676 221.117 135.303 258.537 103.636C264.702 98.4411 270.129 92.3949 276.002 86.9076C279.205 83.948 279.599 80.9122 278.366 76.7841C271.858 54.4284 265.655 31.9584 259.325 9.52656C259.033 8.48499 258.486 7.37991 258.537 6.32563C258.601 4.20439 258.944 2.10854 259.185 0C260.507 1.57506 262.592 2.95958 263.138 4.76328C267.676 20.0947 271.96 35.4896 276.358 50.821C278.531 58.5058 280.997 66.1524 282.827 73.888C283.857 78.3464 286.323 80.4677 290.467 82.1189C330.861 98.1489 372.146 98.3395 413.964 89.2956C425.01 86.9076 435.865 83.5543 446.809 80.9122C450.902 79.9469 452.694 77.9653 453.609 73.9134C458.643 51.8626 463.931 29.8753 469.244 7.88799C469.739 6.05889 471.328 4.48383 472.396 2.80716C473.184 3.15012 473.934 3.51848 474.735 3.88684C474.48 5.74134 474.341 7.63395 473.947 9.45035C469.053 30.3961 464.045 51.291 459.444 72.351C458.897 75.0058 459.736 79.0704 461.554 81.0266C500.576 122.537 548.915 146.341 605.986 153.136C608.249 153.403 611.553 151.714 613.231 149.935C631.077 131.06 648.732 111.982 666.439 93.03C668.332 91.0485 670.239 87.1744 673.798 92.2806H673.747ZM170.057 651.299C179.73 640.921 188.946 631.204 197.83 621.208C199.013 619.874 199.216 616.622 198.428 614.844C194.921 606.192 191.088 597.676 186.937 589.313C170.566 556.427 148.551 527.847 118.82 505.301C116.748 503.752 113.698 501.63 111.817 502.177C97.3645 506.203 83.0014 510.852 68.4094 515.374C75.0698 539.292 85.7723 560.251 101.648 578.097C123.65 602.802 146.784 626.479 170.057 651.299V651.299ZM715.871 301.115C700.872 280.271 686.331 260.278 672.133 239.993C659.74 222.299 648.3 203.919 635.437 186.492C628.535 177.105 619.599 169.141 611.007 159.957C599.961 171.834 590.009 182.364 580.374 193.224C579.357 194.405 579.904 197.809 580.844 199.626C587.352 212.048 593.758 224.535 600.851 236.652C618.099 266.007 639.924 291.538 668.371 311.201C670.226 312.484 673.061 314.059 674.879 313.538C688.733 309.639 702.474 305.256 715.871 301.115V301.115ZM318.278 740.137C375.832 728.756 430.844 711.113 489.975 710.859C485.285 698.208 481.141 686.357 476.349 674.671C474.953 671.825 472.52 669.621 469.549 668.51C453.711 663.48 437.403 663.684 421.159 666.249C390.03 671.178 361.329 683.448 332.336 694.727C331.453 695.108 330.658 695.668 330.004 696.372C329.35 697.076 328.849 697.909 328.535 698.817C325.04 712.117 321.888 725.454 318.278 740.137V740.137ZM49.8262 338.015C51.5041 338.98 52.1904 339.615 52.9912 339.793C65.8672 342.435 78.667 345.09 91.6065 347.415C93.2844 347.707 95.8265 346.449 97.1739 345.141C136.247 307.289 156.47 261.078 160.55 207.768C160.651 205.85 160.893 203.157 159.813 202.077C149.352 191.497 138.611 181.195 126.815 169.712C121.49 235.751 97.3772 291.919 49.7881 338.015H49.8262ZM131.226 165.47C141.738 176.14 151.69 186.365 161.91 196.374C163.041 197.505 165.71 197.898 167.439 197.581C209.613 189.553 248.775 174.984 281.073 146.074C294.636 133.943 294.585 133.88 289.755 117.012C287.026 107.484 284.281 97.9619 281.518 88.4446C240.526 132.699 188.412 153.568 131.226 165.419V165.47ZM115.732 495.292C130.87 490.592 144.877 486.35 158.796 481.663C160.575 481.078 162.393 478.259 162.749 476.239C164.376 466.852 166.155 457.453 166.6 448.002C167.642 425.52 160.677 404.282 155.999 382.587C152.949 368.589 147.127 361.044 131.887 360.205C121.731 359.672 111.715 356.585 100.962 354.49C102.373 402.11 118.299 447.113 115.732 495.229V495.292ZM715.045 306.527C702.181 310.464 690.64 314.313 678.895 317.488C673.582 318.911 671.396 321.553 670.303 326.824C661.583 369.021 666.311 410.417 676.188 451.813C678.399 461.035 682.289 465.125 691.822 466.242C702.423 467.449 712.871 470.167 722.582 472.035C718.159 444.446 713.024 417.517 709.719 390.36C706.427 362.759 708.88 335.157 715.045 306.527V306.527ZM627.111 623.774C649.902 568.545 671.307 514.104 722.493 477.268C708.092 474.359 695.279 471.577 682.352 469.278C680.344 468.91 677.332 470.028 675.705 471.45C666.248 479.681 656.27 487.518 647.97 496.753C630.759 515.933 619.371 538.682 609.367 562.042C604.626 572.991 600.088 584.029 595.296 595.435L627.111 623.774V623.774ZM100.377 349.117C116.799 352.419 131.798 355.518 146.886 358.237C148.513 358.529 150.979 356.814 152.415 355.379C182.552 325.44 198.631 289.252 201.885 247.487C202.038 245.468 201.834 242.686 200.601 241.378C189.797 230.085 178.752 219.098 167.757 208.035C167.109 208.263 166.422 208.505 165.837 208.746C160.969 262.755 140.581 309.829 100.377 349.104V349.117ZM451.016 84.5577C395.737 101.197 341.716 107.777 286.374 85.5993C289.869 98.0981 293.276 108.844 295.792 119.806C297.165 125.916 300.483 128.926 306.292 131.162C350.283 147.992 393.894 142.822 437.454 129.561C438.324 129.196 439.108 128.653 439.754 127.966C440.4 127.279 440.894 126.463 441.204 125.573C444.521 112.502 447.521 99.3429 451.016 84.5577V84.5577ZM456.685 83.4272C453.381 97.4884 450.33 109.936 447.623 122.461C447.487 123.475 447.563 124.506 447.845 125.49C448.128 126.473 448.61 127.388 449.262 128.177C481.713 163.171 521.803 184.066 569.646 190.607C571.731 190.874 574.73 190.874 575.925 189.667C585.725 179.658 595.169 169.331 605.719 158.052C546.627 150.316 497.449 126.259 456.685 83.4272V83.4272ZM574.73 198.889C564.13 210.232 554.152 220.749 544.542 231.521C543.602 232.6 544.021 235.662 544.835 237.313C548.432 244.706 552.232 251.971 556.223 259.224C570.726 285.644 588.725 309.308 613.689 327.218C615.748 328.704 618.799 330.699 620.743 330.152C635.64 325.961 650.334 321.236 666.794 316.129C623.362 285.886 596.872 244.578 574.73 198.889V198.889ZM168.85 202.484C176.591 210.219 183.594 217.371 190.751 224.369C204.91 238.164 204.961 238.215 224.383 233.261C254.813 225.449 282.586 212.734 305.224 190.658C308.274 187.648 309.266 185.044 307.931 180.751C304.576 170.424 301.906 159.906 298.907 149.453C298.017 146.252 296.936 143.051 295.602 138.834C260.584 175.276 216.833 192.475 168.85 202.471V202.484ZM666.095 321.578C652.025 325.897 639.454 330.038 626.667 333.582C621.671 334.992 619.421 337.329 618.328 342.435C610.829 378.433 615.176 413.783 624.76 448.777C625.281 450.822 628.408 453.07 630.772 453.655C639.06 455.725 647.525 457.11 655.965 458.786C661.596 459.866 667.163 460.996 673.811 462.279C661.354 415.548 655.418 369.757 666.095 321.54V321.578ZM671.853 467.513C669.451 466.814 668.002 466.281 666.566 465.988C655.024 463.639 643.597 461.047 631.954 459.256C628.649 458.748 624.302 459.574 621.531 461.428C608.617 469.99 597.673 480.901 590.225 494.136C578.086 515.793 567.282 538.149 555.944 560.149C568.235 571.162 579.179 580.929 591.267 591.714C610.486 544.932 628.764 498.861 671.853 467.513V467.513ZM119.443 499.204C159.94 529.664 185.488 569.053 203.639 613.332C204.72 613.015 205.266 613.04 205.508 612.761C211.825 606.118 218.091 599.398 224.345 592.704C235.2 580.942 235.2 580.917 228.54 566.233C214.825 536.015 196.178 509.442 169.371 488.903C167.274 487.29 163.867 485.588 161.745 486.185C148.106 489.995 134.633 494.454 119.443 499.204V499.204ZM439.246 134.21C392.445 148.005 346.826 152.895 299.962 133.816C304.398 149.567 308.351 163.781 312.494 177.931C312.787 178.896 314.07 179.798 315.113 180.255C351.021 195.51 387.412 193.529 423.917 182.618C425.658 182.084 428.061 180.751 428.417 179.341C432.103 164.822 435.458 150.189 439.246 134.21ZM570.358 195.879C545.75 191.89 523.061 185.476 501.783 174.641C480.683 163.844 462.431 149.351 445.233 131.809L434.48 177.524C437.187 180.065 439.742 182.237 442.004 184.548C466.282 209.051 495.555 224.344 529.912 230.136C532.963 230.632 537.513 230.682 539.216 228.955C549.652 218.552 559.503 207.552 570.358 195.879V195.879ZM494.436 707.899C507.613 691.403 523.892 677.642 542.356 667.393C562.363 656.151 582.878 645.799 603.152 635.002C608.833 632.005 614.452 628.854 620.731 625.463C610.549 616.368 601.296 607.896 591.763 599.741C590.593 598.687 587.492 598.395 586.056 599.119C564.511 610.36 542.89 621.551 521.587 633.3C506.743 641.389 493.72 652.44 483.327 665.767C481.967 667.57 480.925 670.771 481.611 672.715C485.399 684.07 489.746 695.235 494.449 707.899H494.436ZM173.756 654.602C176.515 655.084 178.002 655.402 179.476 655.605C194.716 657.625 210.007 659.2 225.171 661.74C265.49 668.485 296.072 688.338 313.041 725.886C313.435 726.737 314.274 727.486 315.367 728.909C318.278 717.121 321.138 706.185 323.604 695.197C324.099 693.203 323.604 690.752 322.917 688.783C311.859 658.374 290.899 638.127 258.346 631.166C241.378 627.546 223.964 625.92 206.753 623.545C205.126 623.316 202.762 623.647 201.822 624.663C192.556 634.253 183.531 644.072 173.756 654.563V654.602ZM52.3175 344.569C67.7103 399.303 84.9207 452.461 68.3458 509.95C82.4548 505.543 95.1274 501.745 107.66 497.515C109.033 497.02 110.368 494.111 110.368 492.32C110.418 481.917 110.863 471.438 109.58 461.136C105.245 426.244 100.313 391.402 95.4198 356.547C95.1656 355.087 93.3988 353.003 92.0133 352.699C79.3025 349.93 66.4646 347.478 52.3175 344.633V344.569ZM472.282 663.201C467.223 649.572 462.57 636.73 457.537 624.04C456.914 622.44 454.232 620.789 452.376 620.598C442.246 619.658 432.09 618.032 422.087 618.68C400.377 620.052 380.65 628.943 360.185 635.244C346.229 639.562 338.78 646.777 337.293 661.143C336.352 670.365 333.149 679.383 330.734 689.443C345.085 684.121 358.062 678.977 371.282 674.429C398.267 665.17 425.582 657.231 454.779 660.432C460.321 661.016 465.774 662.147 472.282 663.201V663.201ZM478.167 663.925C506.219 628.359 548.495 615.67 584.988 593.492C574.285 583.927 564.18 574.782 553.885 565.827C552.792 564.874 549.982 564.506 548.699 565.192C528.857 575.785 508.711 585.947 489.619 597.671C480.632 603.196 473.476 611.719 465.939 619.264C464.452 620.738 463.727 624.269 464.375 626.263C468.481 638.432 473.12 650.423 478.167 663.925V663.925ZM326.985 682.063C330.188 668.904 333.251 656.532 336.162 644.11C336.454 642.903 336.022 641.455 335.577 640.21C327.442 616.559 312.685 598.814 287.238 592.374C272.633 588.703 257.495 587.077 242.496 584.956C240.424 584.689 237.463 586.429 235.785 588.106C229.76 594.102 224.065 600.44 218.32 606.689C214.965 610.335 211.711 614.082 207.808 618.426C220.519 620.077 231.921 621.487 243.271 623.062C280.412 628.257 309.367 644.796 324.951 679.79C325.205 680.285 325.803 680.679 326.985 682.063V682.063ZM209.194 248.288L207.173 249.329C202.889 291.64 186.556 328.641 155.135 359.977C168.647 362.657 180.811 365.21 192.975 367.369C194.449 367.636 196.775 366.29 198.047 365.058C221.574 341.495 234.209 313.055 236.967 280.335C237.107 278.557 236.573 276.194 235.378 274.962C226.811 265.931 217.977 257.128 209.194 248.288V248.288ZM612.723 332.82C577.794 307.809 556.884 274.162 538.886 237.427C530.141 246.763 522.108 255.147 514.481 263.822C513.515 264.953 513.757 267.963 514.532 269.589C517.913 276.588 521.561 283.485 525.362 290.293C536.458 310.083 550.033 327.904 568.68 341.61C570.587 343.032 573.701 344.595 575.684 344.048C587.619 340.784 599.389 336.961 612.723 332.82V332.82ZM243.602 274.111C254.457 285.098 264.918 295.755 275.57 306.247C276.561 307.238 278.9 307.479 280.45 307.212C295.894 304.38 310.639 299.617 323.998 291.195C336.708 283.117 336.708 283.142 332.679 268.624L330.811 262.247C328.243 253.178 325.637 244.109 323.019 234.938C295.589 247.398 266.736 254.994 243.602 274.111V274.111ZM611.757 338.383C601.499 341.546 590.263 344.836 579.205 348.608C577.412 349.231 575.76 351.911 575.251 353.905C568.248 383.133 571.603 411.916 579.497 440.445C579.823 441.327 580.349 442.121 581.035 442.765C581.722 443.409 582.548 443.884 583.45 444.154C595.042 446.707 606.711 448.904 618.455 451.254C615.507 432.175 611.312 413.77 610.219 395.2C609.1 376.642 611.109 357.856 611.757 338.383V338.383ZM619.155 456.589C611.503 455.065 605.452 454.722 600.165 452.575C583.602 445.856 572.163 452.842 562.236 464.972C559.528 468.287 556.173 471.234 554.241 474.88C544.794 493.222 535.54 511.662 526.48 530.197C525.934 531.239 526.188 533.436 526.976 534.16C535.314 541.845 543.83 549.39 553.173 557.723C568.807 519.921 583.653 482.755 619.155 456.589V456.589ZM156.152 365.299C166.956 402.948 178.103 439.352 167.592 478.83C173.947 476.938 179.082 475.451 184.166 473.826C207.694 466.433 208.33 465.341 208.787 440.546C209.13 418.241 202.279 397.321 196.254 376.236C195.911 374.953 194.678 373.149 193.547 372.908C181.51 370.304 169.422 367.966 156.152 365.299V365.299ZM238.874 577.093C247.263 568.126 254.8 560.212 262.033 552.058C262.573 551.317 262.94 550.465 263.107 549.563C263.274 548.662 263.237 547.735 262.999 546.85C251.851 518.524 235.874 493.399 211.101 474.397C209.677 473.292 207.249 472.009 205.775 472.454C194.424 475.718 183.137 479.364 170.553 483.301C203.258 508.286 223.773 540.181 238.874 577.093V577.093ZM325.828 225.246C327.163 224.928 328.205 224.433 329.184 224.522C330.467 224.624 331.802 225.068 333.035 225.576C359.664 236.475 386.547 234.747 413.532 227.088C415.274 226.592 417.676 225.233 418.032 223.836C421.133 212.137 423.79 200.324 426.917 187.063C389.128 197.86 352.521 200.921 314.592 185.145C318.672 199.867 322.18 212.353 325.828 225.246ZM433.31 183.024L424.222 221.689C427.476 224.306 430.158 226.084 432.421 228.32C451.36 247.17 473.959 259.376 500.588 264.152C502.648 264.521 505.8 264.889 506.893 263.784C515.613 255.02 523.976 245.887 533.382 235.814C493.534 229.412 461.109 212.252 433.31 183.024V183.024ZM567.218 346.919C539.585 326.215 523.023 299.299 508.825 269.678C497.83 281.503 487.801 292.249 478.484 302.284L487.051 318.2C495.047 332.96 504.376 346.779 517.939 357.309C519.921 358.834 523.43 360.167 525.591 359.558C539.013 355.836 552.27 351.505 567.218 346.919V346.919ZM244.301 282.075C243.602 282.443 242.916 282.863 242.229 283.256C238.276 315.863 225.515 344.557 201.39 369.148C216.731 372.209 230.637 375.118 244.644 377.531C246.424 377.823 249.144 376.007 250.618 374.432C265.21 358.999 273.46 340.593 276.167 319.813C276.459 317.603 276.167 314.542 274.832 313.068C264.867 302.551 254.559 292.351 244.352 282.075H244.301ZM454.614 615.632C450.521 604.441 447.012 594.381 443.021 584.524C442.271 582.695 439.577 580.599 437.657 580.498C428.671 579.901 419.214 578.11 410.723 580.155C392.318 584.537 374.459 591.002 356.423 596.718C355.088 597.163 353.359 598.42 353.016 599.627C349.915 611.516 347.055 623.481 343.839 636.425C380.078 623.227 414.46 607.553 454.614 615.632ZM570.32 351.289C557.317 355.277 545.673 359.227 533.776 362.327C528.234 363.749 526.175 366.709 525.235 371.764C521.739 391.287 523.379 410.531 528.285 429.597C528.679 431.223 530.319 433.522 531.755 433.814C545.559 436.837 559.414 439.479 574.311 442.464C566.773 412.068 562.973 382.472 570.32 351.289V351.289ZM574.362 447.659C562.617 445.284 552.067 443.887 541.962 440.876C532.772 438.12 526.277 440.902 520.316 447.215C519.07 448.498 517.684 449.679 516.515 451.013C503.931 464.642 497.22 481.383 490.521 498.112C490.077 499.217 490.42 501.389 491.246 502.139C500.881 511.017 510.63 519.718 521.142 529.08C533.827 498.366 545.864 468.592 574.362 447.659V447.659ZM210.706 465.493C223.875 461.403 235.416 457.554 247.11 454.302C251.699 453.02 253.618 450.555 254.559 446.211C257.66 431.477 254.165 417.339 251.94 402.859C249.563 387.515 242.623 379.373 226.264 379.081C220.29 378.928 214.329 376.807 208.33 375.677C206.283 375.283 204.211 374.991 201.351 374.521C210.033 404.675 218.765 433.598 210.681 465.493H210.706ZM547.313 559.869C538.505 551.956 530.103 544.259 521.472 536.891C520.506 536.028 517.621 536.371 516.21 537.12C504.173 543.217 491.678 548.755 480.442 556.072C470.044 562.842 460.905 571.517 451.398 579.558C450.063 580.688 448.69 583.305 449.135 584.677C452.631 595.207 456.635 605.584 460.855 617.118C483.734 588.17 517.57 577.703 547.313 559.869ZM268.235 545.592C277.756 535.342 286.488 526.133 295.017 516.644C296.008 515.476 296.301 512.872 295.742 511.398C288.026 491.38 276.968 473.546 259.859 459.79C258.232 458.507 255.626 456.932 254.088 457.376C240.971 461.174 227.993 465.391 213.744 469.875C239.687 490.287 256.059 515.717 268.235 545.592V545.592ZM337.979 632.144C338.48 631.913 338.976 631.672 339.467 631.42C341.094 625.018 342.771 618.591 344.246 612.215C345.186 608.188 347.284 603.615 346.241 600.021C340.789 581.285 330.582 565.585 310.6 559.577C298.373 555.881 285.395 554.636 272.722 552.477C271.35 552.223 269.176 552.477 268.337 553.328C260.202 561.762 252.258 570.387 243.132 580.167C283.971 583.394 321.125 590.291 337.979 632.144V632.144ZM416.507 231.572C386.255 240.031 357.274 240.958 326.896 229.006L339.772 274.644C343.61 274.822 346.674 274.251 349.14 275.178C366.553 281.808 384.107 281.313 401.813 276.854C403.745 276.359 406.211 274.263 406.707 272.472C410.1 259.415 412.998 246.255 416.456 231.572H416.507ZM501.923 269.563C472.332 264.013 448.08 251.476 428.086 231.203C424.883 227.926 422.57 228.688 421.527 233.07C418.426 246.179 415.325 259.313 412.439 271.431C416.138 273.869 419.519 275.47 422.023 277.833C434.505 289.696 448.957 298.016 465.913 301.814C468.049 302.284 471.354 302.106 472.561 300.823C482.259 290.954 491.576 280.703 501.923 269.563V269.563ZM239.242 270.808C260.062 254.143 285.014 245.277 309.533 235.522C312.684 234.313 315.707 232.794 318.557 230.987C319.74 230.251 320.947 228.079 320.68 226.948C317.718 215.656 314.414 204.465 310.906 192.094C282.599 220.318 247.72 233.845 210.681 241.581C220.151 251.285 229.48 260.799 239.242 270.808V270.808ZM515.46 531.404C505.253 522.284 495.873 513.659 486.162 505.428C485.018 504.438 481.967 504.539 480.378 505.301C472.879 508.871 465.138 512.275 458.287 516.911C450 522.475 442.399 529.105 434.747 535.52C433.425 536.625 432.192 539.241 432.637 540.562C436.78 552.629 441.28 564.569 446.097 577.627C464.363 554.408 491.081 545.745 515.46 531.404V531.404ZM354.745 591.637C382.76 581.476 409.249 570.145 439.628 575.366C435.28 563.642 430.933 552.934 427.387 541.998C425.722 536.828 422.773 535.304 417.587 535.05C399.805 534.16 383.954 540.766 367.964 546.837C366.833 547.269 365.498 548.463 365.257 549.492C361.761 563.121 358.406 576.789 354.745 591.637V591.637ZM273.371 547.561C306.66 550.025 335.514 557.278 349.127 592.272C352.686 577.779 355.686 565.623 358.647 553.455C358.8 552.832 359.041 552.007 358.749 551.511C354.516 544.373 351.059 536.447 345.631 530.235C335.031 518.143 319.587 517.152 304.69 515.742C303.61 515.615 302.122 516.708 301.283 517.61C292.411 527.009 283.628 536.523 273.371 547.561V547.561ZM453.635 329.06L459.367 337.05C466.867 347.503 474.163 358.097 481.878 368.373C483.098 369.973 486.352 371.599 488.056 371.104C497.144 368.792 506.003 365.782 514.799 363.025C507.401 354.591 499.902 347.199 493.852 338.777C487.725 330.343 483.048 320.931 477.811 311.861C475.777 308.267 473.667 307.428 470.616 310.782C464.884 317.006 459.075 323.217 453.635 329.06V329.06ZM524.04 437.599C514.761 435.732 507.312 433.954 499.762 432.925C496.78 432.583 493.77 433.259 491.221 434.843C476.819 444.89 470.858 460.374 464.782 475.705C464.414 476.734 465.075 478.805 466.028 479.63C472.04 485.27 478.217 490.694 485.018 496.753C494.322 474.766 502.965 453.223 524.04 437.599V437.599ZM521.015 366.493C512.003 369.275 504.16 371.32 496.661 374.203C495.363 374.781 494.199 375.62 493.239 376.666C492.279 377.713 491.544 378.945 491.081 380.287C487.534 394.311 488.628 408.384 492.123 422.306C492.517 423.805 493.712 426.053 494.881 426.32C503.969 428.441 513.134 430.143 523.252 432.214C517.964 410.074 515.803 389.103 521.015 366.493ZM283.628 319.648L281.302 321.134C278.099 343.07 268.973 362.39 253.288 379.436C263.202 381.456 271.782 383.45 280.463 384.721C282.535 385.013 285.636 383.463 287.124 381.786C296.303 371.709 302.157 359.052 303.889 345.535C304.143 343.756 303.787 341.368 302.707 340.162C296.555 333.15 290.047 326.443 283.628 319.648V319.648ZM251.966 384.365C257.978 406.352 264.537 427.425 258.969 450.339C267.409 447.735 274.4 445.297 281.556 443.468C286.297 442.261 288.013 439.568 288.662 435.135C290.835 420.401 286.59 406.644 282.497 392.85C282.154 391.567 280.171 390.093 278.747 389.763C270.358 387.909 261.982 386.334 251.966 384.365V384.365ZM300.991 510.281C307.448 503.333 313.028 497.451 318.303 491.494C319.244 490.44 319.841 488.141 319.345 486.896C313.575 472.035 305.681 458.481 292.907 448.244C291.572 447.164 289.107 446.414 287.53 446.872C279.345 449.145 271.261 451.851 261.982 454.76C280.476 469.837 292.31 488.369 301.042 510.281H300.991ZM404.457 282.38C394.364 283.371 385.136 285.238 376.061 284.844C366.693 284.425 357.465 281.643 348.097 280.157C343.954 279.509 342.072 282.024 343.038 285.771C345.339 294.498 347.945 303.173 349.877 309.893C354.809 310.159 358.507 309.715 361.71 310.706C372.161 313.906 383.271 314.296 393.92 311.836C395.661 311.442 397.962 309.562 398.419 307.936C400.669 299.667 402.448 291.208 404.457 282.405V282.38ZM282.84 312.115C290.085 319.584 296.797 326.583 303.699 333.48C304.296 334.014 305.821 334.014 306.813 333.823C319.523 331.512 331.866 327.815 342.428 320.118C344.055 318.962 345.733 316.053 345.39 314.402C343.318 305.663 340.649 297.051 337.89 287.372C321.506 300.95 302.821 307.695 282.84 312.115ZM404.355 306.628C408.499 309.067 411.575 310.947 414.664 312.763C423.498 317.933 432.243 323.217 441.229 328.184C442.691 328.996 445.894 329.263 446.796 328.387C453.495 321.782 459.85 314.834 466.676 307.555C441 299.324 437.238 297.305 418.095 280.97C414.397 277.807 411.295 277.858 409.999 282.621C407.635 291.106 405.944 299.756 404.355 306.628V306.628ZM479.832 499.56C473.082 493.514 467.375 488.242 461.388 483.2C460.27 482.234 457.842 481.256 456.876 481.764C444.89 488.179 431.556 492.79 422.989 504.171C421.998 505.505 420.409 507.461 420.803 508.591C423.383 516.454 426.383 524.177 429.688 533.17C443.288 516.314 462.176 509.684 479.832 499.56V499.56ZM307.397 511.068C331.967 512.796 351.097 520.214 360.566 543.065C363.325 534.63 365.346 526.59 367.278 518.511C367.481 517.699 367.57 516.644 367.176 515.996C364.812 512.199 362.193 508.553 359.88 504.755C352.876 493.323 341.386 490.783 329.056 489.919C327.976 489.843 326.438 490.707 325.612 491.596C319.93 497.515 314.363 503.574 307.397 511.068V511.068ZM422.938 530.388C420.155 522.894 417.396 516.39 415.388 509.684C413.952 505.06 411.346 502.634 406.554 503.726C396.691 505.987 386.929 508.578 377.167 511.17C376.036 511.475 374.548 512.643 374.307 513.647C371.892 522.5 369.718 531.417 367.151 541.617C385.836 534.63 403.008 528.317 422.938 530.388V530.388ZM477.734 374.559C469.739 362.289 461.999 350.476 454.347 338.65C452.287 335.449 449.478 334.141 446.606 336.872C440.505 342.918 434.861 349.371 429.993 354.617C432.853 357.868 435.052 360.04 436.793 362.53C440.746 368.119 444.292 374.063 448.487 379.462C449.605 380.897 452.885 381.926 454.69 381.431C462.736 379.386 470.629 376.718 477.734 374.559V374.559ZM488.132 430.499C478.624 428.555 470.731 426.853 462.787 425.456C461.49 425.202 459.787 426.015 458.541 426.828C448.639 433.382 444.343 443.633 440.288 454.036C439.945 454.925 440.543 456.703 441.28 457.44C447.089 462.851 453.025 468.097 459.571 474.016C466.333 457.58 472.942 442.312 488.132 430.499ZM485.03 424.592V377.747C476.285 380.402 467.973 382.93 459.736 385.584C458.897 385.838 457.855 387.032 457.855 387.845C457.702 397.257 457.512 406.721 457.855 416.145C457.906 417.466 460.638 419.448 462.393 419.893C470.032 421.734 477.836 423.132 485.03 424.592V424.592ZM295.729 438.095C322.205 431.07 325.37 435.402 318.507 404.599C318.163 403.1 317.871 401.5 317.134 400.166C316.486 398.909 315.456 397.232 314.274 396.965C305.885 395.047 297.407 393.434 289.653 391.884C291.789 407.902 293.759 423.081 295.729 438.095ZM325.917 483.505C331.243 477.776 337.115 471.488 344.068 463.994C338.399 455.763 332.819 447.329 326.896 439.2C325.764 437.675 322.904 436.05 321.417 436.418C313.282 438.539 305.338 441.27 298.589 443.391C307.766 456.856 316.689 469.913 325.917 483.505ZM396.449 316.726C382.887 319.381 370.646 318.886 358.52 315.139C357.287 314.796 352.851 318.784 353.143 320.092C355.063 328.984 357.834 337.71 360.694 347.745C364.291 342.626 367.456 342.054 372.044 343.68C376.137 345.103 380.929 345.204 385.365 345.052C387.196 344.95 389.941 342.981 390.437 341.33C392.699 333.734 394.275 325.923 396.449 316.726ZM396.398 340.53C400.898 342.804 404.253 344.303 407.355 346.119C411.206 348.418 414.753 351.2 418.744 353.245C420.104 353.969 423.065 353.893 424.006 352.953C430.044 347.033 435.649 340.784 441.636 334.42C435.306 331.486 429.599 329.39 424.502 326.278C419.341 323.179 414.892 318.936 409.948 315.456C406.147 312.814 402.843 313.729 401.66 318.187C399.563 326.1 397.923 334.103 396.398 340.53V340.53ZM292.373 387.108C295.97 387.845 300.572 388.836 305.084 389.751C320.972 392.977 323.527 391.554 329.006 376.274C329.641 374.406 330.34 372.476 330.531 370.532C330.683 369.122 330.48 367.204 329.641 366.277C323.426 359.647 317.07 353.219 311.3 347.326C304.792 361.044 298.716 373.708 292.31 387.108H292.373ZM417.142 499.395C429.586 491.481 441.369 484.013 453.635 476.175C447.826 471.006 442.093 465.785 436.132 460.857C435.141 460.018 432.484 459.866 431.442 460.565C424.54 465.061 417.892 469.812 411.283 474.651C410.291 475.375 409.249 477.319 409.541 478.297C411.956 485.537 414.689 492.726 417.142 499.395V499.395ZM310.511 339.615C316.702 345.801 323.082 352.241 329.59 358.567C330.239 359.151 331.662 359.558 332.501 359.304C339.162 357.284 345.822 355.29 352.279 352.724C353.614 352.19 355.088 349.18 354.745 347.694C352.826 339.59 350.334 331.6 348.237 324.335C335.526 329.492 323.133 334.522 310.511 339.615ZM367.977 508.705C368.574 508.629 369.108 508.553 369.655 508.451L375.921 483.149C373.404 480.951 371.676 479.91 370.633 478.462C368.956 476.163 367.977 473.267 366.147 471.12C362.003 466.217 352.381 463.257 349.381 466.166C343.509 471.781 338.132 477.916 331.624 484.902C349.089 486.629 361.609 493.336 367.977 508.705ZM410.444 497.172C408.512 491.85 406.643 485.981 404.139 480.393C402.995 477.979 400.237 474.105 398.813 474.346C393.271 475.286 385.2 476.099 383.179 479.719C379.137 486.921 378.438 495.94 376.277 504.615C388.149 502.037 399.004 499.7 410.444 497.172V497.172ZM444.432 384.581C439.933 377.506 436.094 371.053 431.849 364.791C429.268 360.891 425.786 359.393 421.896 363.318C418.197 367.115 414.702 371.155 411.194 374.991C413.901 376.769 416.85 377.849 418.337 379.919C425.735 390.322 425.582 390.449 438.077 386.651C440.187 385.978 442.297 385.267 444.432 384.581V384.581ZM434.022 450.822C440.085 441.283 445.716 432.391 451.677 422.954C445.945 422.166 438.445 418.813 434.022 421.125C428.582 423.906 424.883 431.083 422.176 437.091C421.388 438.895 426.319 443.302 428.874 446.313C430.476 448.129 432.535 449.565 434.022 450.822V450.822ZM330.34 433.395L347.894 459.663C352.279 454.938 356.423 450.416 360.516 446.046C357.414 440.889 354.796 436.012 351.491 431.566C350.36 429.991 347.347 428.568 345.517 428.911C340.356 429.889 335.323 431.845 330.34 433.395V433.395ZM327.671 428.619C329.794 428.022 332.171 427.361 334.484 426.625C347.068 422.7 347.754 421.671 344.348 409.299C343.598 406.644 341.933 403.011 339.759 402.199C334.624 400.281 328.955 399.76 323.375 398.705C324.862 408.854 326.197 418.356 327.671 428.619V428.619ZM451.131 417.555V388.302L431.836 394.12C431.734 396.483 431.734 398.21 431.543 399.938C430.133 413.402 430.082 413.402 443.631 416.209C446.046 416.679 448.474 417.085 451.131 417.555ZM388.149 351.276C381.488 350.311 375.667 348.812 369.947 349.002C367.379 349.053 362.651 352.749 362.842 354.35C363.579 360.46 365.943 366.353 367.125 370.545C372.362 370.012 376.15 369.834 379.811 369.084C381.539 368.716 384.069 367.585 384.552 366.226C386.128 361.463 386.967 356.458 388.149 351.276V351.276ZM429.039 454.861C414.892 441.753 416.952 437.637 400.339 453.845C402.309 458.951 404.368 464.172 406.402 469.456L429.039 454.861V454.861ZM417.892 359.774C412.503 355.963 407.94 351.962 402.652 349.307C400.567 348.266 395.013 349.434 394.415 350.882C392.242 356.433 391.416 362.492 390.564 366.353C396.335 368.817 400.72 370.647 405.753 372.717L417.892 359.774ZM356.575 458.215C363.782 463.715 370.341 468.681 377.739 474.334C379.264 468.491 380.942 462.292 382.073 457.846C379.112 455.039 376.798 453.515 375.413 451.394C371.612 445.525 368.956 445.081 364.113 450.149C361.367 453.07 358.596 456.017 356.575 458.215V458.215ZM337.001 371.841C332.857 380.275 329.654 386.727 326.146 393.815C331.967 394.971 337.636 396.572 343.318 396.876C345.288 397.029 348.148 394.222 349.228 392.075C350.22 390.221 350.169 386.778 348.987 385.152C345.581 380.554 341.386 376.566 337.001 371.841V371.841ZM357.414 356.776C350.156 359.431 343.648 361.819 337.09 364.27C336.556 365.134 336.009 366.023 335.412 366.912C338.577 369.084 341.971 370.901 344.729 373.416C352.076 380.199 351.923 380.313 362.486 375.092L357.414 356.776V356.776ZM399.538 467.97C397.618 462.775 395.991 458.227 394.161 453.744C393.818 452.918 392.458 451.673 391.899 451.851C390.805 452.169 389.369 453.121 389.077 454.099C387.45 459.523 386.141 464.985 384.539 471.26L399.538 467.97ZM368.905 401.995C374.828 399.341 379.95 395.593 385.53 394.895C391.212 394.234 397.263 396.597 403.148 397.6C390.513 386.245 371.676 389.039 368.905 401.995ZM418.286 392.418L419.748 390.17C415.731 387.007 411.905 383.285 407.329 381.177C406.033 380.58 402.436 384.797 399.385 387.236C402.779 388.734 405.83 389.09 406.579 390.538C409.846 396.978 414.092 393.968 418.286 392.418V392.418ZM425.531 418.8C418.235 416.044 415.185 417.352 411.333 423.779C407.838 429.622 412.249 431.401 415.782 434.093C419.176 428.809 422.328 423.805 425.531 418.8V418.8ZM370.837 434.259C369.006 431.274 367.875 427.336 365.269 425.647C362.804 424.122 358.762 424.961 353.779 424.643C356.728 429.013 358.418 431.286 359.893 433.687C364.812 441.829 364.964 441.854 370.837 434.259V434.259ZM351.847 420.871C356.232 419.423 361.456 420.147 360.77 413.249C360.134 406.378 356.575 403.812 349.572 404.51C350.309 409.782 351.046 414.913 351.847 420.871V420.871ZM415.528 399.036C417.435 411.712 417.435 411.712 426.129 411.306C425.48 406.67 424.883 402.084 424.286 397.511C421.337 398.032 418.388 398.553 415.528 399.036V399.036ZM383.37 376.667C382.48 375.562 381.59 374.457 380.662 373.39C377.357 374.838 372.769 375.486 371.142 377.976C369.718 380.224 371.485 384.479 371.879 387.858C372.769 388.061 373.709 388.252 374.586 388.43C377.548 384.505 380.459 380.554 383.37 376.667V376.667ZM394.631 438.819C396.08 441.435 397.313 443.811 398.75 446.364L410.139 438.488C404.851 428.86 400.084 434.894 394.631 438.819V438.819ZM385.785 383.222L388.162 385.546C392.445 383.374 396.792 381.215 401.076 379.017C400.872 377.938 400.631 376.871 400.44 375.791C397.224 375.346 393.284 373.581 391.072 374.8C388.492 376.223 387.45 380.287 385.785 383.222V383.222ZM386.662 440.787C383.039 439.263 380.306 438.082 376.951 436.659L372.654 441.435C376.302 444.052 379.467 446.262 382.569 448.485C384.056 445.729 385.492 442.985 386.662 440.787V440.787ZM366.35 392.24L364.481 380.707C361.52 381.99 359.448 382.853 356.448 384.136C359.791 386.867 362.104 388.785 366.35 392.24ZM362.448 400.763L363.337 398.693C361.075 396.394 358.8 394.082 356.041 391.224C354.618 394.323 353.677 396.419 352.444 399.036L362.448 400.763" fill="white"/>
<path d="M362.448 400.763L363.337 398.693C361.075 396.394 358.8 394.082 356.041 391.224C354.618 394.323 353.677 396.419 352.444 399.036L362.448 400.763M673.747 92.2806C653.893 113.773 633.95 135.214 613.791 156.998C640.407 178.388 655.99 207.476 674.535 234.43C688.581 254.791 703.973 274.251 718.578 294.244C721.654 298.41 724.806 298.651 729.548 297.127C747.597 291.259 765.748 285.784 783.912 280.322C785.704 279.776 787.877 280.475 789.848 280.614L790 283.028C787.992 283.764 785.958 284.603 783.937 285.238C765.392 291.03 746.898 297 728.2 302.424C722.709 304.024 720.307 306.539 719.112 312.166C709.159 360.371 714.295 407.762 725.099 455.204C728.2 468.897 733.094 477.039 748.665 477.878C759.392 478.411 769.942 481.879 780.543 484.051C780.747 484.775 780.937 485.499 781.09 486.248C779.348 486.845 777.442 488.115 775.853 487.823C762.717 485.463 749.623 482.875 736.577 480.062C731.81 479.033 728.06 479.707 724.018 482.577C696.334 502.291 676.925 528.483 662.13 558.066C652.253 577.754 644.055 598.204 635.094 618.286C633.848 621.106 632.386 623.837 630.747 627.267C650.588 645.1 670.837 663.29 691.123 681.479C688.784 686.814 686.534 684.439 684.018 682.203C668.625 668.421 653.181 654.729 637.839 640.947C624.951 629.413 625.001 629.388 609.443 637.593C588.318 648.759 567.015 659.555 546.157 671.14C528.425 680.933 512.969 693.445 500.232 709.17C497.576 712.472 496.928 715.152 498.491 719.319C506.728 740.912 514.634 762.62 522.616 784.277C522.769 784.696 523.061 785.09 523.112 785.547C523.315 788.253 523.455 791.022 523.608 793.753C521.841 791.657 519.413 789.853 518.523 787.478C510.167 765.937 502.108 744.282 494.347 722.52C492.53 717.413 490.077 715.864 484.687 715.927C448.843 716.245 414.155 723.841 379.429 731.538C360.249 735.793 341.043 740.302 321.875 744.507C317.973 745.332 316.308 747.085 315.418 750.858C311.122 769.009 306.533 787.046 302.046 805.121C301.449 807.446 300.813 809.757 300.267 811.955C294.445 812.412 295.78 809.313 296.517 806.404C301.398 786.602 306.482 766.85 310.867 746.895C311.91 742.322 311.617 736.695 309.876 732.338C294.038 692.301 262.477 672.232 220.392 666.072C205.152 663.849 189.81 662.426 174.57 660.356C170.477 659.759 167.96 660.902 165.253 663.849C147.211 683.452 129.06 702.954 110.8 722.354C109.363 723.802 106.948 724.374 105.029 725.352C104.533 724.603 103.987 723.879 103.491 723.129C124.261 700.697 145.068 678.278 166.435 655.186C162.151 650.245 158.097 645.304 153.724 640.655C138.929 625.361 123.739 610.475 109.236 594.876C86.5985 570.526 79.0483 557.418 62.8802 517.343C59.8677 518.207 56.7155 519.032 53.614 520.01C38.0815 524.837 22.5362 529.753 7.00364 534.427C5.03347 535.05 2.61842 534.376 0.444877 534.275C2.22439 532.827 3.80052 530.756 5.82153 530.07C22.587 524.596 39.3653 519.223 56.2833 514.193C60.9736 512.821 63.1471 510.344 64.3674 505.771C73.0488 473.876 71.371 442.007 64.1767 410.29C59.3974 389.293 53.4742 368.589 47.6018 347.884C46.9663 345.725 43.6107 343.324 41.0685 342.766C27.6841 339.654 14.109 337.151 0.597406 334.433L0 332.261C1.72867 331.702 3.59715 330.432 5.186 330.686C14.9987 332.363 24.8114 333.988 34.4843 336.402C40.5092 337.926 44.297 336.796 48.8348 332.21C73.2013 307.441 92.1912 279.42 104.673 247.259C114.346 222.388 119.621 196.615 121.197 170.144C121.337 167.134 119.659 163.247 117.498 161.024C103.491 146.557 89.0898 132.432 74.6249 117.99C76.2519 114.268 78.2729 115.843 80.7388 118.231C94.4029 131.517 108.067 144.829 121.922 157.887C123.6 159.462 126.663 160.999 128.722 160.618C176.565 151.676 221.117 135.303 258.537 103.636C264.702 98.4411 270.129 92.3949 276.002 86.9076C279.205 83.948 279.599 80.9122 278.366 76.7841C271.858 54.4284 265.655 31.9584 259.325 9.52656C259.033 8.48499 258.486 7.37991 258.537 6.32563C258.601 4.20439 258.944 2.10854 259.185 0C260.507 1.57506 262.592 2.95958 263.138 4.76328C267.676 20.0947 271.96 35.4896 276.358 50.821C278.531 58.5058 280.997 66.1524 282.827 73.888C283.857 78.3464 286.323 80.4677 290.467 82.1189C330.861 98.1489 372.146 98.3395 413.964 89.2956C425.01 86.9076 435.865 83.5543 446.809 80.9122C450.902 79.9469 452.694 77.9653 453.609 73.9134C458.643 51.8626 463.931 29.8753 469.244 7.88799C469.739 6.05889 471.328 4.48383 472.396 2.80716C473.184 3.15012 473.934 3.51848 474.735 3.88684C474.48 5.74134 474.341 7.63395 473.947 9.45035C469.053 30.3961 464.045 51.291 459.444 72.351C458.897 75.0058 459.736 79.0704 461.554 81.0266C500.576 122.537 548.915 146.341 605.986 153.136C608.249 153.403 611.553 151.714 613.231 149.935C631.077 131.06 648.732 111.982 666.439 93.03C668.332 91.0485 670.239 87.1744 673.798 92.2806H673.747ZM170.057 651.299C179.73 640.921 188.946 631.204 197.83 621.208C199.013 619.874 199.216 616.622 198.428 614.844C194.921 606.192 191.088 597.676 186.937 589.313C170.566 556.427 148.551 527.847 118.82 505.301C116.748 503.752 113.698 501.63 111.817 502.177C97.3645 506.203 83.0014 510.852 68.4094 515.374C75.0698 539.292 85.7723 560.251 101.648 578.097C123.65 602.802 146.784 626.479 170.057 651.299V651.299ZM715.871 301.115C700.872 280.271 686.331 260.278 672.133 239.993C659.74 222.299 648.3 203.919 635.437 186.492C628.535 177.105 619.599 169.141 611.007 159.957C599.961 171.834 590.009 182.364 580.374 193.224C579.357 194.405 579.904 197.809 580.844 199.626C587.352 212.048 593.758 224.535 600.851 236.652C618.099 266.007 639.924 291.538 668.371 311.201C670.226 312.484 673.061 314.059 674.879 313.538C688.733 309.639 702.474 305.256 715.871 301.115V301.115ZM318.278 740.137C375.832 728.756 430.844 711.113 489.975 710.859C485.285 698.208 481.141 686.357 476.349 674.671C474.953 671.825 472.52 669.621 469.549 668.51C453.711 663.48 437.403 663.684 421.159 666.249C390.03 671.178 361.329 683.448 332.336 694.727C331.453 695.108 330.658 695.668 330.004 696.372C329.35 697.076 328.849 697.909 328.535 698.817C325.04 712.117 321.888 725.454 318.278 740.137V740.137ZM49.8262 338.015C51.5041 338.98 52.1904 339.615 52.9912 339.793C65.8672 342.435 78.667 345.09 91.6065 347.415C93.2844 347.707 95.8265 346.449 97.1739 345.141C136.247 307.289 156.47 261.078 160.55 207.768C160.651 205.85 160.893 203.157 159.813 202.077C149.352 191.497 138.611 181.195 126.815 169.712C121.49 235.751 97.3772 291.919 49.7881 338.015H49.8262ZM131.226 165.47C141.738 176.14 151.69 186.365 161.91 196.374C163.041 197.505 165.71 197.898 167.439 197.581C209.613 189.553 248.775 174.984 281.073 146.074C294.636 133.943 294.585 133.88 289.755 117.012C287.026 107.484 284.281 97.9619 281.518 88.4446C240.526 132.699 188.412 153.568 131.226 165.419V165.47ZM115.732 495.292C130.87 490.592 144.877 486.35 158.796 481.663C160.575 481.078 162.393 478.259 162.749 476.239C164.376 466.852 166.155 457.453 166.6 448.002C167.642 425.52 160.677 404.282 155.999 382.587C152.949 368.589 147.127 361.044 131.887 360.205C121.731 359.672 111.715 356.585 100.962 354.49C102.373 402.11 118.299 447.113 115.732 495.229V495.292ZM715.045 306.527C702.181 310.464 690.64 314.313 678.895 317.488C673.582 318.911 671.396 321.553 670.303 326.824C661.583 369.021 666.311 410.417 676.188 451.813C678.399 461.035 682.289 465.125 691.822 466.242C702.423 467.449 712.871 470.167 722.582 472.035C718.159 444.446 713.024 417.517 709.719 390.36C706.427 362.759 708.88 335.157 715.045 306.527V306.527ZM627.111 623.774C649.902 568.545 671.307 514.104 722.493 477.268C708.092 474.359 695.279 471.577 682.352 469.278C680.344 468.91 677.332 470.028 675.705 471.45C666.248 479.681 656.27 487.518 647.97 496.753C630.759 515.933 619.371 538.682 609.367 562.042C604.626 572.991 600.088 584.029 595.296 595.435L627.111 623.774V623.774ZM100.377 349.117C116.799 352.419 131.798 355.518 146.886 358.237C148.513 358.529 150.979 356.814 152.415 355.379C182.552 325.44 198.631 289.252 201.885 247.487C202.038 245.468 201.834 242.686 200.601 241.378C189.797 230.085 178.752 219.098 167.757 208.035C167.109 208.263 166.422 208.505 165.837 208.746C160.969 262.755 140.581 309.829 100.377 349.104V349.117ZM451.016 84.5577C395.737 101.197 341.716 107.777 286.374 85.5993C289.869 98.0981 293.276 108.844 295.792 119.806C297.165 125.916 300.483 128.926 306.292 131.162C350.283 147.992 393.894 142.822 437.454 129.561C438.324 129.196 439.108 128.653 439.754 127.966C440.4 127.279 440.894 126.463 441.204 125.573C444.521 112.502 447.521 99.3429 451.016 84.5577V84.5577ZM456.685 83.4272C453.381 97.4884 450.33 109.936 447.623 122.461C447.487 123.475 447.563 124.506 447.845 125.49C448.128 126.473 448.61 127.388 449.262 128.177C481.713 163.171 521.803 184.066 569.646 190.607C571.731 190.874 574.73 190.874 575.925 189.667C585.725 179.658 595.169 169.331 605.719 158.052C546.627 150.316 497.449 126.259 456.685 83.4272V83.4272ZM574.73 198.889C564.13 210.232 554.152 220.749 544.542 231.521C543.602 232.6 544.021 235.662 544.835 237.313C548.432 244.706 552.232 251.971 556.223 259.224C570.726 285.644 588.725 309.308 613.689 327.218C615.748 328.704 618.799 330.699 620.743 330.152C635.64 325.961 650.334 321.236 666.794 316.129C623.362 285.886 596.872 244.578 574.73 198.889V198.889ZM168.85 202.484C176.591 210.219 183.594 217.371 190.751 224.369C204.91 238.164 204.961 238.215 224.383 233.261C254.813 225.449 282.586 212.734 305.224 190.658C308.274 187.648 309.266 185.044 307.931 180.751C304.576 170.424 301.906 159.906 298.907 149.453C298.017 146.252 296.936 143.051 295.602 138.834C260.584 175.276 216.833 192.475 168.85 202.471V202.484ZM666.095 321.578C652.025 325.897 639.454 330.038 626.667 333.582C621.671 334.992 619.421 337.329 618.328 342.435C610.829 378.433 615.176 413.783 624.76 448.777C625.281 450.822 628.408 453.07 630.772 453.655C639.06 455.725 647.525 457.11 655.965 458.786C661.596 459.866 667.163 460.996 673.811 462.279C661.354 415.548 655.418 369.757 666.095 321.54V321.578ZM671.853 467.513C669.451 466.814 668.002 466.281 666.566 465.988C655.024 463.639 643.597 461.047 631.954 459.256C628.649 458.748 624.302 459.574 621.531 461.428C608.617 469.99 597.673 480.901 590.225 494.136C578.086 515.793 567.282 538.149 555.944 560.149C568.235 571.162 579.179 580.929 591.267 591.714C610.486 544.932 628.764 498.861 671.853 467.513V467.513ZM119.443 499.204C159.94 529.664 185.488 569.053 203.639 613.332C204.72 613.015 205.266 613.04 205.508 612.761C211.825 606.118 218.091 599.398 224.345 592.704C235.2 580.942 235.2 580.917 228.54 566.233C214.825 536.015 196.178 509.442 169.371 488.903C167.274 487.29 163.867 485.588 161.745 486.185C148.106 489.995 134.633 494.454 119.443 499.204V499.204ZM439.246 134.21C392.445 148.005 346.826 152.895 299.962 133.816C304.398 149.567 308.351 163.781 312.494 177.931C312.787 178.896 314.07 179.798 315.113 180.255C351.021 195.51 387.412 193.529 423.917 182.618C425.658 182.084 428.061 180.751 428.417 179.341C432.103 164.822 435.458 150.189 439.246 134.21ZM570.358 195.879C545.75 191.89 523.061 185.476 501.783 174.641C480.683 163.844 462.431 149.351 445.233 131.809L434.48 177.524C437.187 180.065 439.742 182.237 442.004 184.548C466.282 209.051 495.555 224.344 529.912 230.136C532.963 230.632 537.513 230.682 539.216 228.955C549.652 218.552 559.503 207.552 570.358 195.879V195.879ZM494.436 707.899C507.613 691.403 523.892 677.642 542.356 667.393C562.363 656.151 582.878 645.799 603.152 635.002C608.833 632.005 614.452 628.854 620.731 625.463C610.549 616.368 601.296 607.896 591.763 599.741C590.593 598.687 587.492 598.395 586.056 599.119C564.511 610.36 542.89 621.551 521.587 633.3C506.743 641.389 493.72 652.44 483.327 665.767C481.967 667.57 480.925 670.771 481.611 672.715C485.399 684.07 489.746 695.235 494.449 707.899H494.436ZM173.756 654.602C176.515 655.084 178.002 655.402 179.476 655.605C194.716 657.625 210.007 659.2 225.171 661.74C265.49 668.485 296.072 688.338 313.041 725.886C313.435 726.737 314.274 727.486 315.367 728.909C318.278 717.121 321.138 706.185 323.604 695.197C324.099 693.203 323.604 690.752 322.917 688.783C311.859 658.374 290.899 638.127 258.346 631.166C241.378 627.546 223.964 625.92 206.753 623.545C205.126 623.316 202.762 623.647 201.822 624.663C192.556 634.253 183.531 644.072 173.756 654.563V654.602ZM52.3175 344.569C67.7103 399.303 84.9207 452.461 68.3458 509.95C82.4548 505.543 95.1274 501.745 107.66 497.515C109.033 497.02 110.368 494.111 110.368 492.32C110.418 481.917 110.863 471.438 109.58 461.136C105.245 426.244 100.313 391.402 95.4198 356.547C95.1656 355.087 93.3988 353.003 92.0133 352.699C79.3025 349.93 66.4646 347.478 52.3175 344.633V344.569ZM472.282 663.201C467.223 649.572 462.57 636.73 457.537 624.04C456.914 622.44 454.232 620.789 452.376 620.598C442.246 619.658 432.09 618.032 422.087 618.68C400.377 620.052 380.65 628.943 360.185 635.244C346.229 639.562 338.78 646.777 337.293 661.143C336.352 670.365 333.149 679.383 330.734 689.443C345.085 684.121 358.062 678.977 371.282 674.429C398.267 665.17 425.582 657.231 454.779 660.432C460.321 661.016 465.774 662.147 472.282 663.201V663.201ZM478.167 663.925C506.219 628.359 548.495 615.67 584.988 593.492C574.285 583.927 564.18 574.782 553.885 565.827C552.792 564.874 549.982 564.506 548.699 565.192C528.857 575.785 508.711 585.947 489.619 597.671C480.632 603.196 473.476 611.719 465.939 619.264C464.452 620.738 463.727 624.269 464.375 626.263C468.481 638.432 473.12 650.423 478.167 663.925V663.925ZM326.985 682.063C330.188 668.904 333.251 656.532 336.162 644.11C336.454 642.903 336.022 641.455 335.577 640.21C327.442 616.559 312.685 598.814 287.238 592.374C272.633 588.703 257.495 587.077 242.496 584.956C240.424 584.689 237.463 586.429 235.785 588.106C229.76 594.102 224.065 600.44 218.32 606.689C214.965 610.335 211.711 614.082 207.808 618.426C220.519 620.077 231.921 621.487 243.271 623.062C280.412 628.257 309.367 644.796 324.951 679.79C325.205 680.285 325.803 680.679 326.985 682.063V682.063ZM209.194 248.288L207.173 249.329C202.889 291.64 186.556 328.641 155.135 359.977C168.647 362.657 180.811 365.21 192.975 367.369C194.449 367.636 196.775 366.29 198.047 365.058C221.574 341.495 234.209 313.055 236.967 280.335C237.107 278.557 236.573 276.194 235.378 274.962C226.811 265.931 217.977 257.128 209.194 248.288V248.288ZM612.723 332.82C577.794 307.809 556.884 274.162 538.886 237.427C530.141 246.763 522.108 255.147 514.481 263.822C513.515 264.953 513.757 267.963 514.532 269.589C517.913 276.588 521.561 283.485 525.362 290.293C536.458 310.083 550.033 327.904 568.68 341.61C570.587 343.032 573.701 344.595 575.684 344.048C587.619 340.784 599.389 336.961 612.723 332.82V332.82ZM243.602 274.111C254.457 285.098 264.918 295.755 275.57 306.247C276.561 307.238 278.9 307.479 280.45 307.212C295.894 304.38 310.639 299.617 323.998 291.195C336.708 283.117 336.708 283.142 332.679 268.624L330.811 262.247C328.243 253.178 325.637 244.109 323.019 234.938C295.589 247.398 266.736 254.994 243.602 274.111V274.111ZM611.757 338.383C601.499 341.546 590.263 344.836 579.205 348.608C577.412 349.231 575.76 351.911 575.251 353.905C568.248 383.133 571.603 411.916 579.497 440.445C579.823 441.327 580.349 442.121 581.035 442.765C581.722 443.409 582.548 443.884 583.45 444.154C595.042 446.707 606.711 448.904 618.455 451.254C615.507 432.175 611.312 413.77 610.219 395.2C609.1 376.642 611.109 357.856 611.757 338.383V338.383ZM619.155 456.589C611.503 455.065 605.452 454.722 600.165 452.575C583.602 445.856 572.163 452.842 562.236 464.972C559.528 468.287 556.173 471.234 554.241 474.88C544.794 493.222 535.54 511.662 526.48 530.197C525.934 531.239 526.188 533.436 526.976 534.16C535.314 541.845 543.83 549.39 553.173 557.723C568.807 519.921 583.653 482.755 619.155 456.589V456.589ZM156.152 365.299C166.956 402.948 178.103 439.352 167.592 478.83C173.947 476.938 179.082 475.451 184.166 473.826C207.694 466.433 208.33 465.341 208.787 440.546C209.13 418.241 202.279 397.321 196.254 376.236C195.911 374.953 194.678 373.149 193.547 372.908C181.51 370.304 169.422 367.966 156.152 365.299V365.299ZM238.874 577.093C247.263 568.126 254.8 560.212 262.033 552.058C262.573 551.317 262.94 550.465 263.107 549.563C263.274 548.662 263.237 547.735 262.999 546.85C251.851 518.524 235.874 493.399 211.101 474.397C209.677 473.292 207.249 472.009 205.775 472.454C194.424 475.718 183.137 479.364 170.553 483.301C203.258 508.286 223.773 540.181 238.874 577.093V577.093ZM325.828 225.246C327.163 224.928 328.205 224.433 329.184 224.522C330.467 224.624 331.802 225.068 333.035 225.576C359.664 236.475 386.547 234.747 413.532 227.088C415.274 226.592 417.676 225.233 418.032 223.836C421.133 212.137 423.79 200.324 426.917 187.063C389.128 197.86 352.521 200.921 314.592 185.145C318.672 199.867 322.18 212.353 325.828 225.246ZM433.31 183.024L424.222 221.689C427.476 224.306 430.158 226.084 432.421 228.32C451.36 247.17 473.959 259.376 500.588 264.152C502.648 264.521 505.8 264.889 506.893 263.784C515.613 255.02 523.976 245.887 533.382 235.814C493.534 229.412 461.109 212.252 433.31 183.024V183.024ZM567.218 346.919C539.585 326.215 523.023 299.299 508.825 269.678C497.83 281.503 487.801 292.249 478.484 302.284L487.051 318.2C495.047 332.96 504.376 346.779 517.939 357.309C519.921 358.834 523.43 360.167 525.591 359.558C539.013 355.836 552.27 351.505 567.218 346.919V346.919ZM244.301 282.075C243.602 282.443 242.916 282.863 242.229 283.256C238.276 315.863 225.515 344.557 201.39 369.148C216.731 372.209 230.637 375.118 244.644 377.531C246.424 377.823 249.144 376.007 250.618 374.432C265.21 358.999 273.46 340.593 276.167 319.813C276.459 317.603 276.167 314.542 274.832 313.068C264.867 302.551 254.559 292.351 244.352 282.075H244.301ZM454.614 615.632C450.521 604.441 447.012 594.381 443.021 584.524C442.271 582.695 439.577 580.599 437.657 580.498C428.671 579.901 419.214 578.11 410.723 580.155C392.318 584.537 374.459 591.002 356.423 596.718C355.088 597.163 353.359 598.42 353.016 599.627C349.915 611.516 347.055 623.481 343.839 636.425C380.078 623.227 414.46 607.553 454.614 615.632ZM570.32 351.289C557.317 355.277 545.673 359.227 533.776 362.327C528.234 363.749 526.175 366.709 525.235 371.764C521.739 391.287 523.379 410.531 528.285 429.597C528.679 431.223 530.319 433.522 531.755 433.814C545.559 436.837 559.414 439.479 574.311 442.464C566.773 412.068 562.973 382.472 570.32 351.289V351.289ZM574.362 447.659C562.617 445.284 552.067 443.887 541.962 440.876C532.772 438.12 526.277 440.902 520.316 447.215C519.07 448.498 517.684 449.679 516.515 451.013C503.931 464.642 497.22 481.383 490.521 498.112C490.077 499.217 490.42 501.389 491.246 502.139C500.881 511.017 510.63 519.718 521.142 529.08C533.827 498.366 545.864 468.592 574.362 447.659V447.659ZM210.706 465.493C223.875 461.403 235.416 457.554 247.11 454.302C251.699 453.02 253.618 450.555 254.559 446.211C257.66 431.477 254.165 417.339 251.94 402.859C249.563 387.515 242.623 379.373 226.264 379.081C220.29 378.928 214.329 376.807 208.33 375.677C206.283 375.283 204.211 374.991 201.351 374.521C210.033 404.675 218.765 433.598 210.681 465.493H210.706ZM547.313 559.869C538.505 551.956 530.103 544.259 521.472 536.891C520.506 536.028 517.621 536.371 516.21 537.12C504.173 543.217 491.678 548.755 480.442 556.072C470.044 562.842 460.905 571.517 451.398 579.558C450.063 580.688 448.69 583.305 449.135 584.677C452.631 595.207 456.635 605.584 460.855 617.118C483.734 588.17 517.57 577.703 547.313 559.869ZM268.235 545.592C277.756 535.342 286.488 526.133 295.017 516.644C296.008 515.476 296.301 512.872 295.742 511.398C288.026 491.38 276.968 473.546 259.859 459.79C258.232 458.507 255.626 456.932 254.088 457.376C240.971 461.174 227.993 465.391 213.744 469.875C239.687 490.287 256.059 515.717 268.235 545.592V545.592ZM337.979 632.144C338.48 631.913 338.976 631.672 339.467 631.42C341.094 625.018 342.771 618.591 344.246 612.215C345.186 608.188 347.284 603.615 346.241 600.021C340.789 581.285 330.582 565.585 310.6 559.577C298.373 555.881 285.395 554.636 272.722 552.477C271.35 552.223 269.176 552.477 268.337 553.328C260.202 561.762 252.258 570.387 243.132 580.167C283.971 583.394 321.125 590.291 337.979 632.144V632.144ZM416.507 231.572C386.255 240.031 357.274 240.958 326.896 229.006L339.772 274.644C343.61 274.822 346.674 274.251 349.14 275.178C366.553 281.808 384.107 281.313 401.813 276.854C403.745 276.359 406.211 274.263 406.707 272.472C410.1 259.415 412.998 246.255 416.456 231.572H416.507ZM501.923 269.563C472.332 264.013 448.08 251.476 428.086 231.203C424.883 227.926 422.57 228.688 421.527 233.07C418.426 246.179 415.325 259.313 412.439 271.431C416.138 273.869 419.519 275.47 422.023 277.833C434.505 289.696 448.957 298.016 465.913 301.814C468.049 302.284 471.354 302.106 472.561 300.823C482.259 290.954 491.576 280.703 501.923 269.563V269.563ZM239.242 270.808C260.062 254.143 285.014 245.277 309.533 235.522C312.684 234.313 315.707 232.794 318.557 230.987C319.74 230.251 320.947 228.079 320.68 226.948C317.718 215.656 314.414 204.465 310.906 192.094C282.599 220.318 247.72 233.845 210.681 241.581C220.151 251.285 229.48 260.799 239.242 270.808V270.808ZM515.46 531.404C505.253 522.284 495.873 513.659 486.162 505.428C485.018 504.438 481.967 504.539 480.378 505.301C472.879 508.871 465.138 512.275 458.287 516.911C450 522.475 442.399 529.105 434.747 535.52C433.425 536.625 432.192 539.241 432.637 540.562C436.78 552.629 441.28 564.569 446.097 577.627C464.363 554.408 491.081 545.745 515.46 531.404V531.404ZM354.745 591.637C382.76 581.476 409.249 570.145 439.628 575.366C435.28 563.642 430.933 552.934 427.387 541.998C425.722 536.828 422.773 535.304 417.587 535.05C399.805 534.16 383.954 540.766 367.964 546.837C366.833 547.269 365.498 548.463 365.257 549.492C361.761 563.121 358.406 576.789 354.745 591.637V591.637ZM273.371 547.561C306.66 550.025 335.514 557.278 349.127 592.272C352.686 577.779 355.686 565.623 358.647 553.455C358.8 552.832 359.041 552.007 358.749 551.511C354.516 544.373 351.059 536.447 345.631 530.235C335.031 518.143 319.587 517.152 304.69 515.742C303.61 515.615 302.122 516.708 301.283 517.61C292.411 527.009 283.628 536.523 273.371 547.561V547.561ZM453.635 329.06L459.367 337.05C466.867 347.503 474.163 358.097 481.878 368.373C483.098 369.973 486.352 371.599 488.056 371.104C497.144 368.792 506.003 365.782 514.799 363.025C507.401 354.591 499.902 347.199 493.852 338.777C487.725 330.343 483.048 320.931 477.811 311.861C475.777 308.267 473.667 307.428 470.616 310.782C464.884 317.006 459.075 323.217 453.635 329.06V329.06ZM524.04 437.599C514.761 435.732 507.312 433.954 499.762 432.925C496.78 432.583 493.77 433.259 491.221 434.843C476.819 444.89 470.858 460.374 464.782 475.705C464.414 476.734 465.075 478.805 466.028 479.63C472.04 485.27 478.217 490.694 485.018 496.753C494.322 474.766 502.965 453.223 524.04 437.599V437.599ZM521.015 366.493C512.003 369.275 504.16 371.32 496.661 374.203C495.363 374.781 494.199 375.62 493.239 376.666C492.279 377.713 491.544 378.945 491.081 380.287C487.534 394.311 488.628 408.384 492.123 422.306C492.517 423.805 493.712 426.053 494.881 426.32C503.969 428.441 513.134 430.143 523.252 432.214C517.964 410.074 515.803 389.103 521.015 366.493ZM283.628 319.648L281.302 321.134C278.099 343.07 268.973 362.39 253.288 379.436C263.202 381.456 271.782 383.45 280.463 384.721C282.535 385.013 285.636 383.463 287.124 381.786C296.303 371.709 302.157 359.052 303.889 345.535C304.143 343.756 303.787 341.368 302.707 340.162C296.555 333.15 290.047 326.443 283.628 319.648V319.648ZM251.966 384.365C257.978 406.352 264.537 427.425 258.969 450.339C267.409 447.735 274.4 445.297 281.556 443.468C286.297 442.261 288.013 439.568 288.662 435.135C290.835 420.401 286.59 406.644 282.497 392.85C282.154 391.567 280.171 390.093 278.747 389.763C270.358 387.909 261.982 386.334 251.966 384.365V384.365ZM300.991 510.281C307.448 503.333 313.028 497.451 318.303 491.494C319.244 490.44 319.841 488.141 319.345 486.896C313.575 472.035 305.681 458.481 292.907 448.244C291.572 447.164 289.107 446.414 287.53 446.872C279.345 449.145 271.261 451.851 261.982 454.76C280.476 469.837 292.31 488.369 301.042 510.281H300.991ZM404.457 282.38C394.364 283.371 385.136 285.238 376.061 284.844C366.693 284.425 357.465 281.643 348.097 280.157C343.954 279.509 342.072 282.024 343.038 285.771C345.339 294.498 347.945 303.173 349.877 309.893C354.809 310.159 358.507 309.715 361.71 310.706C372.161 313.906 383.271 314.296 393.92 311.836C395.661 311.442 397.962 309.562 398.419 307.936C400.669 299.667 402.448 291.208 404.457 282.405V282.38ZM282.84 312.115C290.085 319.584 296.797 326.583 303.699 333.48C304.296 334.014 305.821 334.014 306.813 333.823C319.523 331.512 331.866 327.815 342.428 320.118C344.055 318.962 345.733 316.053 345.39 314.402C343.318 305.663 340.649 297.051 337.89 287.372C321.506 300.95 302.821 307.695 282.84 312.115ZM404.355 306.628C408.499 309.067 411.575 310.947 414.664 312.763C423.498 317.933 432.243 323.217 441.229 328.184C442.691 328.996 445.894 329.263 446.796 328.387C453.495 321.782 459.85 314.834 466.676 307.555C441 299.324 437.238 297.305 418.095 280.97C414.397 277.807 411.295 277.858 409.999 282.621C407.635 291.106 405.944 299.756 404.355 306.628V306.628ZM479.832 499.56C473.082 493.514 467.375 488.242 461.388 483.2C460.27 482.234 457.842 481.256 456.876 481.764C444.89 488.179 431.556 492.79 422.989 504.171C421.998 505.505 420.409 507.461 420.803 508.591C423.383 516.454 426.383 524.177 429.688 533.17C443.288 516.314 462.176 509.684 479.832 499.56V499.56ZM307.397 511.068C331.967 512.796 351.097 520.214 360.566 543.065C363.325 534.63 365.346 526.59 367.278 518.511C367.481 517.699 367.57 516.644 367.176 515.996C364.812 512.199 362.193 508.553 359.88 504.755C352.876 493.323 341.386 490.783 329.056 489.919C327.976 489.843 326.438 490.707 325.612 491.596C319.93 497.515 314.363 503.574 307.397 511.068V511.068ZM422.938 530.388C420.155 522.894 417.396 516.39 415.388 509.684C413.952 505.06 411.346 502.634 406.554 503.726C396.691 505.987 386.929 508.578 377.167 511.17C376.036 511.475 374.548 512.643 374.307 513.647C371.892 522.5 369.718 531.417 367.151 541.617C385.836 534.63 403.008 528.317 422.938 530.388V530.388ZM477.734 374.559C469.739 362.289 461.999 350.476 454.347 338.65C452.287 335.449 449.478 334.141 446.606 336.872C440.505 342.918 434.861 349.371 429.993 354.617C432.853 357.868 435.052 360.04 436.793 362.53C440.746 368.119 444.292 374.063 448.487 379.462C449.605 380.897 452.885 381.926 454.69 381.431C462.736 379.386 470.629 376.718 477.734 374.559V374.559ZM488.132 430.499C478.624 428.555 470.731 426.853 462.787 425.456C461.49 425.202 459.787 426.015 458.541 426.828C448.639 433.382 444.343 443.633 440.288 454.036C439.945 454.925 440.543 456.703 441.28 457.44C447.089 462.851 453.025 468.097 459.571 474.016C466.333 457.58 472.942 442.312 488.132 430.499ZM485.03 424.592V377.747C476.285 380.402 467.973 382.93 459.736 385.584C458.897 385.838 457.855 387.032 457.855 387.845C457.702 397.257 457.512 406.721 457.855 416.145C457.906 417.466 460.638 419.448 462.393 419.893C470.032 421.734 477.836 423.132 485.03 424.592V424.592ZM295.729 438.095C322.205 431.07 325.37 435.402 318.507 404.599C318.163 403.1 317.871 401.5 317.134 400.166C316.486 398.909 315.456 397.232 314.274 396.965C305.885 395.047 297.407 393.434 289.653 391.884C291.789 407.902 293.759 423.081 295.729 438.095ZM325.917 483.505C331.243 477.776 337.115 471.488 344.068 463.994C338.399 455.763 332.819 447.329 326.896 439.2C325.764 437.675 322.904 436.05 321.417 436.418C313.282 438.539 305.338 441.27 298.589 443.391C307.766 456.856 316.689 469.913 325.917 483.505ZM396.449 316.726C382.887 319.381 370.646 318.886 358.52 315.139C357.287 314.796 352.851 318.784 353.143 320.092C355.063 328.984 357.834 337.71 360.694 347.745C364.291 342.626 367.456 342.054 372.044 343.68C376.137 345.103 380.929 345.204 385.365 345.052C387.196 344.95 389.941 342.981 390.437 341.33C392.699 333.734 394.275 325.923 396.449 316.726ZM396.398 340.53C400.898 342.804 404.253 344.303 407.355 346.119C411.206 348.418 414.753 351.2 418.744 353.245C420.104 353.969 423.065 353.893 424.006 352.953C430.044 347.033 435.649 340.784 441.636 334.42C435.306 331.486 429.599 329.39 424.502 326.278C419.341 323.179 414.892 318.936 409.948 315.456C406.147 312.814 402.843 313.729 401.66 318.187C399.563 326.1 397.923 334.103 396.398 340.53V340.53ZM292.373 387.108C295.97 387.845 300.572 388.836 305.084 389.751C320.972 392.977 323.527 391.554 329.006 376.274C329.641 374.406 330.34 372.476 330.531 370.532C330.683 369.122 330.48 367.204 329.641 366.277C323.426 359.647 317.07 353.219 311.3 347.326C304.792 361.044 298.716 373.708 292.31 387.108H292.373ZM417.142 499.395C429.586 491.481 441.369 484.013 453.635 476.175C447.826 471.006 442.093 465.785 436.132 460.857C435.141 460.018 432.484 459.866 431.442 460.565C424.54 465.061 417.892 469.812 411.283 474.651C410.291 475.375 409.249 477.319 409.541 478.297C411.956 485.537 414.689 492.726 417.142 499.395V499.395ZM310.511 339.615C316.702 345.801 323.082 352.241 329.59 358.567C330.239 359.151 331.662 359.558 332.501 359.304C339.162 357.284 345.822 355.29 352.279 352.724C353.614 352.19 355.088 349.18 354.745 347.694C352.826 339.59 350.334 331.6 348.237 324.335C335.526 329.492 323.133 334.522 310.511 339.615ZM367.977 508.705C368.574 508.629 369.108 508.553 369.655 508.451L375.921 483.149C373.404 480.951 371.676 479.91 370.633 478.462C368.956 476.163 367.977 473.267 366.147 471.12C362.003 466.217 352.381 463.257 349.381 466.166C343.509 471.781 338.132 477.916 331.624 484.902C349.089 486.629 361.609 493.336 367.977 508.705ZM410.444 497.172C408.512 491.85 406.643 485.981 404.139 480.393C402.995 477.979 400.237 474.105 398.813 474.346C393.271 475.286 385.2 476.099 383.179 479.719C379.137 486.921 378.438 495.94 376.277 504.615C388.149 502.037 399.004 499.7 410.444 497.172V497.172ZM444.432 384.581C439.933 377.506 436.094 371.053 431.849 364.791C429.268 360.891 425.786 359.393 421.896 363.318C418.197 367.115 414.702 371.155 411.194 374.991C413.901 376.769 416.85 377.849 418.337 379.919C425.735 390.322 425.582 390.449 438.077 386.651C440.187 385.978 442.297 385.267 444.432 384.581V384.581ZM434.022 450.822C440.085 441.283 445.716 432.391 451.677 422.954C445.945 422.166 438.445 418.813 434.022 421.125C428.582 423.906 424.883 431.083 422.176 437.091C421.388 438.895 426.319 443.302 428.874 446.313C430.476 448.129 432.535 449.565 434.022 450.822V450.822ZM330.34 433.395L347.894 459.663C352.279 454.938 356.423 450.416 360.516 446.046C357.414 440.889 354.796 436.012 351.491 431.566C350.36 429.991 347.347 428.568 345.517 428.911C340.356 429.889 335.323 431.845 330.34 433.395V433.395ZM327.671 428.619C329.794 428.022 332.171 427.361 334.484 426.625C347.068 422.7 347.754 421.671 344.348 409.299C343.598 406.644 341.933 403.011 339.759 402.199C334.624 400.281 328.955 399.76 323.375 398.705C324.862 408.854 326.197 418.356 327.671 428.619V428.619ZM451.131 417.555V388.302L431.836 394.12C431.734 396.483 431.734 398.21 431.543 399.938C430.133 413.402 430.082 413.402 443.631 416.209C446.046 416.679 448.474 417.085 451.131 417.555ZM388.149 351.276C381.488 350.311 375.667 348.812 369.947 349.002C367.379 349.053 362.651 352.749 362.842 354.35C363.579 360.46 365.943 366.353 367.125 370.545C372.362 370.012 376.15 369.834 379.811 369.084C381.539 368.716 384.069 367.585 384.552 366.226C386.128 361.463 386.967 356.458 388.149 351.276V351.276ZM429.039 454.861C414.892 441.753 416.952 437.637 400.339 453.845C402.309 458.951 404.368 464.172 406.402 469.456L429.039 454.861V454.861ZM417.892 359.774C412.503 355.963 407.94 351.962 402.652 349.307C400.567 348.266 395.013 349.434 394.415 350.882C392.242 356.433 391.416 362.492 390.564 366.353C396.335 368.817 400.72 370.647 405.753 372.717L417.892 359.774ZM356.575 458.215C363.782 463.715 370.341 468.681 377.739 474.334C379.264 468.491 380.942 462.292 382.073 457.846C379.112 455.039 376.798 453.515 375.413 451.394C371.612 445.525 368.956 445.081 364.113 450.149C361.367 453.07 358.596 456.017 356.575 458.215V458.215ZM337.001 371.841C332.857 380.275 329.654 386.727 326.146 393.815C331.967 394.971 337.636 396.572 343.318 396.876C345.288 397.029 348.148 394.222 349.228 392.075C350.22 390.221 350.169 386.778 348.987 385.152C345.581 380.554 341.386 376.566 337.001 371.841V371.841ZM357.414 356.776C350.156 359.431 343.648 361.819 337.09 364.27C336.556 365.134 336.009 366.023 335.412 366.912C338.577 369.084 341.971 370.901 344.729 373.416C352.076 380.199 351.923 380.313 362.486 375.092L357.414 356.776V356.776ZM399.538 467.97C397.618 462.775 395.991 458.227 394.161 453.744C393.818 452.918 392.458 451.673 391.899 451.851C390.805 452.169 389.369 453.121 389.077 454.099C387.45 459.523 386.141 464.985 384.539 471.26L399.538 467.97ZM368.905 401.995C374.828 399.341 379.95 395.593 385.53 394.895C391.212 394.234 397.263 396.597 403.148 397.6C390.513 386.245 371.676 389.039 368.905 401.995ZM418.286 392.418L419.748 390.17C415.731 387.007 411.905 383.285 407.329 381.177C406.033 380.58 402.436 384.797 399.385 387.236C402.779 388.734 405.83 389.09 406.579 390.538C409.846 396.978 414.092 393.968 418.286 392.418V392.418ZM425.531 418.8C418.235 416.044 415.185 417.352 411.333 423.779C407.838 429.622 412.249 431.401 415.782 434.093C419.176 428.809 422.328 423.805 425.531 418.8V418.8ZM370.837 434.259C369.006 431.274 367.875 427.336 365.269 425.647C362.804 424.122 358.762 424.961 353.779 424.643C356.728 429.013 358.418 431.286 359.893 433.687C364.812 441.829 364.964 441.854 370.837 434.259V434.259ZM351.847 420.871C356.232 419.423 361.456 420.147 360.77 413.249C360.134 406.378 356.575 403.812 349.572 404.51C350.309 409.782 351.046 414.913 351.847 420.871V420.871ZM415.528 399.036C417.435 411.712 417.435 411.712 426.129 411.306C425.48 406.67 424.883 402.084 424.286 397.511C421.337 398.032 418.388 398.553 415.528 399.036V399.036ZM383.37 376.667C382.48 375.562 381.59 374.457 380.662 373.39C377.357 374.838 372.769 375.486 371.142 377.976C369.718 380.224 371.485 384.479 371.879 387.858C372.769 388.061 373.709 388.252 374.586 388.43C377.548 384.505 380.459 380.554 383.37 376.667V376.667ZM394.631 438.819C396.08 441.435 397.313 443.811 398.75 446.364L410.139 438.488C404.851 428.86 400.084 434.894 394.631 438.819V438.819ZM385.785 383.222L388.162 385.546C392.445 383.374 396.792 381.215 401.076 379.017C400.872 377.938 400.631 376.871 400.44 375.791C397.224 375.346 393.284 373.581 391.072 374.8C388.492 376.223 387.45 380.287 385.785 383.222V383.222ZM386.662 440.787C383.039 439.263 380.306 438.082 376.951 436.659L372.654 441.435C376.302 444.052 379.467 446.262 382.569 448.485C384.056 445.729 385.492 442.985 386.662 440.787V440.787ZM366.35 392.24L364.481 380.707C361.52 381.99 359.448 382.853 356.448 384.136C359.791 386.867 362.104 388.785 366.35 392.24Z" stroke="white" stroke-width="4" stroke-linecap="round"/>
</g>
</g>
<defs>
<linearGradient id="paint0_linear_22:128" x1="0" y1="0" x2="206.068" y2="940.009" gradientUnits="userSpaceOnUse">
<stop stop-color="white" stop-opacity="0.5"/>
<stop offset="1"/>
</linearGradient>
<clipPath id="clip0_22:128">
<rect width="790" height="812" fill="white"/>
</clipPath>
</defs>
</svg>
