<svg width="96" height="78" viewBox="0 0 96 78" fill="none" xmlns="http://www.w3.org/2000/svg">
<rect y="14" width="96" height="64" rx="16" fill="black" fill-opacity="0.25"/>
<rect y="6" width="96" height="64" rx="16" fill="#77381C"/>
<rect y="4" width="96" height="64" rx="16" fill="#B86D36"/>
<rect x="1.5" y="1.5" width="93" height="61" rx="14.5" fill="#F8D94F" stroke="#9F5D1F" stroke-width="3"/>
<path d="M55.7476 24.8571C57.2759 24.8571 57.8301 25.0163 58.3889 25.3151C58.9476 25.6139 59.3861 26.0524 59.6849 26.6111L59.7904 26.8223C60.021 27.3236 60.1429 27.9151 60.1429 29.2524V37.3706L60.1368 38.035C60.0925 40.342 59.8055 41.274 59.3033 42.2129C58.7555 43.2373 57.9516 44.0412 56.9272 44.589C55.9029 45.1368 54.8868 45.4286 52.0849 45.4286H43.0579L42.3936 45.4225C40.0866 45.3782 39.1546 45.0912 38.2156 44.589C37.1913 44.0412 36.3874 43.2373 35.8396 42.2129C35.3146 41.2313 35.0248 40.2572 35.0015 37.7117L35 29.2524C35 27.7241 35.1591 27.1699 35.4579 26.6111C35.7568 26.0524 36.1952 25.6139 36.754 25.3151L36.9652 25.2096C37.4307 24.9955 37.9739 24.8751 39.1198 24.859L55.7476 24.8571ZM55.7476 27.1429H39.3952L38.9921 27.146C38.2736 27.1588 38.0536 27.2121 37.8319 27.3307C37.6715 27.4164 37.5593 27.5287 37.4735 27.6891C37.3451 27.9292 37.2932 28.1674 37.2865 29.0396L37.2857 37.3706C37.2857 39.5801 37.4339 40.3473 37.8551 41.135C38.1899 41.761 38.6676 42.2386 39.2936 42.5734C40.0813 42.9947 40.8484 43.1429 43.0579 43.1429H52.0849C54.2944 43.1429 55.0616 42.9947 55.8493 42.5734C56.4753 42.2386 56.9529 41.761 57.2877 41.135C57.709 40.3473 57.8571 39.5801 57.8571 37.3706V29.2524C57.8571 28.204 57.8076 27.9476 57.6693 27.6891C57.5836 27.5287 57.4713 27.4164 57.3109 27.3307C57.0893 27.2121 56.8693 27.1588 56.1507 27.146L55.7476 27.1429ZM53.2857 29.4286C53.9169 29.4286 54.4286 29.9402 54.4286 30.5714C54.4286 31.2026 53.9169 31.7143 53.2857 31.7143C52.6545 31.7143 52.1429 31.2026 52.1429 30.5714C52.1429 29.9402 52.6545 29.4286 53.2857 29.4286ZM41.8571 29.4286C42.4883 29.4286 43 29.9402 43 30.5714C43 31.2026 42.4883 31.7143 41.8571 31.7143C41.226 31.7143 40.7143 31.2026 40.7143 30.5714C40.7143 29.9402 41.226 29.4286 41.8571 29.4286ZM47.5714 18C51.3585 18 54.4286 21.07 54.4286 24.8571H52.1429C52.1429 22.3324 50.0962 20.2857 47.5714 20.2857C45.0467 20.2857 43 22.3324 43 24.8571H40.7143C40.7143 21.07 43.7843 18 47.5714 18Z" fill="#B46D38" stroke="#B46D38" stroke-linejoin="round"/>
</svg>
