<svg width="96" height="78" viewBox="0 0 96 78" fill="none" xmlns="http://www.w3.org/2000/svg">
<rect y="14" width="96" height="64" rx="16" fill="black" fill-opacity="0.25"/>
<rect y="6" width="96" height="64" rx="16" fill="#77381C"/>
<rect y="4" width="96" height="64" rx="16" fill="#B86D36"/>
<rect x="1.5" y="1.5" width="93" height="61" rx="14.5" fill="#F8D94F" stroke="#9F5D1F" stroke-width="3"/>
<path d="M48.2395 38.1383L54.7424 42.1102C54.7952 42.1425 54.8587 42.1526 54.9189 42.1382C55.0447 42.1082 55.1224 41.9818 55.0924 41.8559L53.3244 34.4439L59.1114 29.4867C59.1584 29.4465 59.1876 29.3892 59.1925 29.3275C59.2029 29.1986 59.1067 29.0856 58.9777 29.0753L51.3821 28.4663L48.4558 21.4307C48.4321 21.3735 48.3866 21.3281 48.3295 21.3043C48.21 21.2546 48.0729 21.3112 48.0232 21.4307L45.0969 28.4663L37.5013 29.0753C37.4396 29.0802 37.3824 29.1094 37.3421 29.1564C37.2579 29.2547 37.2694 29.4026 37.3676 29.4867L43.1547 34.4439L41.3866 41.8559C41.3723 41.9162 41.3823 41.9796 41.4146 42.0324C41.482 42.1429 41.6262 42.1777 41.7366 42.1102L48.2395 38.1383ZM48.2395 40.8167L42.9281 44.0609C41.7404 44.7863 40.1894 44.4116 39.4639 43.2239C39.1169 42.6557 39.0088 41.9732 39.1633 41.3256L40.6074 35.2716L35.8806 31.2226C34.8237 30.3172 34.7008 28.7264 35.6062 27.6694C36.0394 27.1638 36.655 26.8501 37.3187 26.7969L43.5226 26.2995L45.9128 20.5529C46.4472 19.2679 47.9222 18.6594 49.2073 19.1939C49.822 19.4496 50.3106 19.9382 50.5663 20.5529L52.9564 26.2995L59.1604 26.7969C60.5477 26.9081 61.5822 28.1229 61.4709 29.5102C61.4177 30.1739 61.104 30.7895 60.5984 31.2226L55.8716 35.2716L57.3157 41.3256C57.6387 42.6794 56.803 44.0386 55.4492 44.3615C54.8016 44.516 54.1191 44.4079 53.551 44.0609L48.2395 40.8167Z" fill="#B46D38" stroke="#B46D38" stroke-linejoin="round"/>
</svg>
