<svg width="96" height="78" viewBox="0 0 96 78" fill="none" xmlns="http://www.w3.org/2000/svg">
<rect y="17" width="96" height="61" rx="16" fill="black" fill-opacity="0.25"/>
<rect y="9" width="96" height="64" rx="16" fill="#77381C"/>
<rect y="7" width="96" height="64" rx="16" fill="#B86D36"/>
<rect x="1.5" y="6.5" width="93" height="61" rx="14.5" fill="#F8BF4F" stroke="#9F5D1F" stroke-width="3"/>
<path d="M48.2395 43.1383L54.7424 47.1102C54.7952 47.1425 54.8587 47.1526 54.9189 47.1382C55.0447 47.1082 55.1224 46.9818 55.0924 46.8559L53.3244 39.4439L59.1114 34.4867C59.1584 34.4465 59.1876 34.3892 59.1925 34.3275C59.2029 34.1986 59.1067 34.0856 58.9777 34.0753L51.3821 33.4663L48.4558 26.4307C48.4321 26.3735 48.3866 26.3281 48.3295 26.3043C48.21 26.2546 48.0729 26.3112 48.0232 26.4307L45.0969 33.4663L37.5013 34.0753C37.4396 34.0802 37.3824 34.1094 37.3421 34.1564C37.2579 34.2547 37.2694 34.4026 37.3676 34.4867L43.1547 39.4439L41.3866 46.8559C41.3723 46.9162 41.3823 46.9796 41.4146 47.0324C41.482 47.1429 41.6262 47.1777 41.7366 47.1102L48.2395 43.1383ZM48.2395 45.8167L42.9281 49.0609C41.7404 49.7863 40.1894 49.4116 39.4639 48.2239C39.1169 47.6557 39.0088 46.9732 39.1633 46.3256L40.6074 40.2716L35.8806 36.2226C34.8237 35.3172 34.7008 33.7264 35.6062 32.6694C36.0394 32.1638 36.655 31.8501 37.3187 31.7969L43.5226 31.2995L45.9128 25.5529C46.4472 24.2679 47.9222 23.6594 49.2073 24.1939C49.822 24.4496 50.3106 24.9382 50.5663 25.5529L52.9564 31.2995L59.1604 31.7969C60.5477 31.9081 61.5822 33.1229 61.4709 34.5102C61.4177 35.1739 61.104 35.7895 60.5984 36.2226L55.8716 40.2716L57.3157 46.3256C57.6387 47.6794 56.803 49.0386 55.4492 49.3615C54.8016 49.516 54.1191 49.4079 53.551 49.0609L48.2395 45.8167Z" fill="#B46D38" stroke="#B46D38" stroke-linejoin="round"/>
</svg>
