<svg width="96" height="78" viewBox="0 0 96 78" fill="none" xmlns="http://www.w3.org/2000/svg">
<rect y="17" width="96" height="61" rx="16" fill="black" fill-opacity="0.25"/>
<rect y="9" width="96" height="64" rx="16" fill="#77381C"/>
<rect y="7" width="96" height="64" rx="16" fill="#B86D36"/>
<rect x="1.5" y="6.5" width="93" height="61" rx="14.5" fill="#F8BF4F" stroke="#9F5D1F" stroke-width="3"/>
<path d="M55.7476 29.8571C57.2759 29.8571 57.8301 30.0163 58.3889 30.3151C58.9476 30.6139 59.3861 31.0524 59.6849 31.6111L59.7904 31.8223C60.021 32.3236 60.1429 32.9151 60.1429 34.2524V42.3706L60.1368 43.035C60.0925 45.342 59.8055 46.274 59.3033 47.2129C58.7555 48.2373 57.9516 49.0412 56.9272 49.589C55.9029 50.1368 54.8868 50.4286 52.0849 50.4286H43.0579L42.3936 50.4225C40.0866 50.3782 39.1546 50.0912 38.2156 49.589C37.1913 49.0412 36.3874 48.2373 35.8396 47.2129C35.3146 46.2313 35.0248 45.2572 35.0015 42.7117L35 34.2524C35 32.7241 35.1591 32.1699 35.4579 31.6111C35.7568 31.0524 36.1952 30.6139 36.754 30.3151L36.9652 30.2096C37.4307 29.9955 37.9739 29.8751 39.1198 29.859L55.7476 29.8571ZM55.7476 32.1429H39.3952L38.9921 32.146C38.2736 32.1588 38.0536 32.2121 37.8319 32.3307C37.6715 32.4164 37.5593 32.5287 37.4735 32.6891C37.3451 32.9292 37.2932 33.1674 37.2865 34.0396L37.2857 42.3706C37.2857 44.5801 37.4339 45.3473 37.8551 46.135C38.1899 46.761 38.6676 47.2386 39.2936 47.5734C40.0813 47.9947 40.8484 48.1429 43.0579 48.1429H52.0849C54.2944 48.1429 55.0616 47.9947 55.8493 47.5734C56.4753 47.2386 56.9529 46.761 57.2877 46.135C57.709 45.3473 57.8571 44.5801 57.8571 42.3706V34.2524C57.8571 33.204 57.8076 32.9476 57.6693 32.6891C57.5836 32.5287 57.4713 32.4164 57.3109 32.3307C57.0893 32.2121 56.8693 32.1588 56.1507 32.146L55.7476 32.1429ZM53.2857 34.4286C53.9169 34.4286 54.4286 34.9402 54.4286 35.5714C54.4286 36.2026 53.9169 36.7143 53.2857 36.7143C52.6545 36.7143 52.1429 36.2026 52.1429 35.5714C52.1429 34.9402 52.6545 34.4286 53.2857 34.4286ZM41.8571 34.4286C42.4883 34.4286 43 34.9402 43 35.5714C43 36.2026 42.4883 36.7143 41.8571 36.7143C41.226 36.7143 40.7143 36.2026 40.7143 35.5714C40.7143 34.9402 41.226 34.4286 41.8571 34.4286ZM47.5714 23C51.3585 23 54.4286 26.07 54.4286 29.8571H52.1429C52.1429 27.3324 50.0962 25.2857 47.5714 25.2857C45.0467 25.2857 43 27.3324 43 29.8571H40.7143C40.7143 26.07 43.7843 23 47.5714 23Z" fill="#B46D38" stroke="#B46D38" stroke-linejoin="round"/>
</svg>
