<svg width="64" height="64" viewBox="0 0 64 64" fill="none" xmlns="http://www.w3.org/2000/svg">
<path d="M8 54.6661V33.3328C8 20.1008 18.7653 9.33276 32 9.33276C45.2347 9.33276 56 20.1008 56 33.3328V53.3328C56 58.4794 51.8133 62.6661 46.6667 62.6661C43.584 62.6661 41.176 61.5301 39.5733 59.4981C38.5866 60.4987 37.4114 61.2939 36.1156 61.8378C34.8198 62.3817 33.4291 62.6636 32.0238 62.667C30.6185 62.6705 29.2264 62.3955 27.9279 61.858C26.6295 61.3205 25.4504 60.5311 24.4587 59.5354C22.864 61.5541 20.464 62.6661 17.3333 62.6661C12.6427 62.6661 8.65333 59.3448 8 54.8328V54.6661Z" fill="black" fill-opacity="0.25"/>
<path d="M8 50.6661V29.3328C8 16.1008 18.7653 5.33276 32 5.33276C45.2347 5.33276 56 16.1008 56 29.3328V49.3328C56 54.4794 51.8133 58.6661 46.6667 58.6661C43.584 58.6661 41.176 57.5301 39.5733 55.4981C38.5866 56.4987 37.4114 57.2939 36.1156 57.8378C34.8198 58.3817 33.4291 58.6636 32.0238 58.667C30.6185 58.6705 29.2264 58.3955 27.9279 57.858C26.6295 57.3205 25.4504 56.5311 24.4587 55.5354C22.864 57.5541 20.464 58.6661 17.3333 58.6661C12.6427 58.6661 8.65333 55.3448 8 50.8328V50.6661Z" fill="#F3BB4A"/>
<path fill-rule="evenodd" clip-rule="evenodd" d="M8 29.3328V50.6661V50.8328C8.24473 52.5229 8.95756 54.046 10 55.29V33.5495C10 18.9119 20.7653 7 34 7C40.9971 7 47.304 10.3296 51.6946 15.6312C47.3538 9.41067 40.1445 5.33276 32 5.33276C18.7653 5.33276 8 16.1008 8 29.3328Z" fill="#B05C37"/>
<path fill-rule="evenodd" clip-rule="evenodd" d="M10.5743 55.9143C12.2986 57.624 14.7059 58.6661 17.3334 58.6661C20.4207 58.6661 22.7975 57.5846 24.392 55.6187C23.3044 55.0964 22.3121 54.3923 21.4587 53.5354C19.864 55.5541 17.464 56.6661 14.3334 56.6661C13.004 56.6661 11.731 56.3993 10.5743 55.9143ZM24.6808 55.7521C25.6247 56.6461 26.7251 57.3601 27.928 57.858C29.2264 58.3955 30.6185 58.6705 32.0238 58.667C33.4291 58.6636 34.8198 58.3817 36.1156 57.8378C37.3076 57.3375 38.3976 56.6244 39.3327 55.7345C38.2461 55.2008 37.3219 54.4472 36.5734 53.4981C35.5866 54.4987 34.4114 55.2939 33.1156 55.8378C31.8198 56.3817 30.4291 56.6636 29.0238 56.667C27.6185 56.6705 26.2264 56.3955 24.928 55.858C24.8451 55.8237 24.7627 55.7884 24.6808 55.7521ZM40.0425 56.0428C41.6309 57.732 43.8714 58.6661 46.6667 58.6661C51.8133 58.6661 56 54.4794 56 49.3328V29.3328C56 20.3622 51.0522 12.5242 43.7416 8.40601C49.3731 12.8022 53 19.6524 53 27.3328V47.3328C53 52.4794 48.8133 56.6661 43.6667 56.6661C42.3278 56.6661 41.1161 56.4518 40.0425 56.0428Z" fill="#E29944"/>
<path d="M8 50.6661V29.3328C8 16.1008 18.7653 5.33276 32 5.33276C45.2347 5.33276 56 16.1008 56 29.3328V49.3328C56 54.4794 51.8133 58.6661 46.6667 58.6661C43.584 58.6661 41.176 57.5301 39.5733 55.4981C38.5866 56.4987 37.4114 57.2939 36.1156 57.8378C34.8198 58.3817 33.4291 58.6636 32.0238 58.667C30.6185 58.6705 29.2264 58.3955 27.9279 57.858C26.6295 57.3205 25.4504 56.5311 24.4587 55.5354C22.864 57.5541 20.464 58.6661 17.3333 58.6661C12.6427 58.6661 8.65333 55.3448 8 50.8328V50.6661Z" stroke="#7E3E1E" stroke-width="2"/>
<circle cx="21.5" cy="25.8328" r="6.5" fill="#B05C37"/>
<circle cx="25" cy="29.33" r="6.5" fill="#E29944"/>
<circle cx="23" cy="27.3328" r="6" fill="url(#paint0_linear_22:1074)" stroke="#7E3E1E" stroke-width="2"/>
<circle cx="31" cy="42.3328" r="3" fill="#B05C37"/>
<circle cx="33.5" cy="44.83" r="3" fill="#E29944"/>
<circle cx="32" cy="43.3328" r="2" fill="url(#paint1_linear_22:1074)" stroke="#7E3E1E" stroke-width="2"/>
<path opacity="0.78" d="M46.9936 16.7542C46.6193 19.9099 41.8836 16.1481 35.58 15.4004C29.2764 14.6527 23.7921 17.2022 24.1664 14.0466C24.5407 10.8909 29.9542 8.93889 36.2578 9.6866C42.5613 10.4343 47.368 13.5986 46.9936 16.7542Z" fill="#F7D94F"/>
<path opacity="0.78" d="M42.9722 14.3738C42.8155 15.6949 39.86 14.0046 36.0209 13.5493C32.1819 13.0939 28.913 14.0458 29.0697 12.7247C29.2264 11.4037 32.4656 10.7019 36.3047 11.1573C40.1437 11.6127 43.1289 13.0527 42.9722 14.3738Z" fill="white"/>
<circle cx="39.5" cy="25.5" r="6.5" fill="#B05C37"/>
<circle cx="43" cy="28.9972" r="6.5" fill="#E29944"/>
<circle cx="41" cy="27" r="6" fill="url(#paint2_linear_22:1074)" stroke="#7E3E1E" stroke-width="2"/>
<defs>
<linearGradient id="paint0_linear_22:1074" x1="14.5" y1="-1.66724" x2="13.5" y2="75.8328" gradientUnits="userSpaceOnUse">
<stop stop-color="#E1B555"/>
<stop offset="1" stop-color="#BD7B34"/>
</linearGradient>
<linearGradient id="paint1_linear_22:1074" x1="29.1667" y1="33.6661" x2="28.8333" y2="59.4994" gradientUnits="userSpaceOnUse">
<stop stop-color="#E1B555"/>
<stop offset="1" stop-color="#BD7B34"/>
</linearGradient>
<linearGradient id="paint2_linear_22:1074" x1="32.5" y1="-2" x2="31.5" y2="75.5" gradientUnits="userSpaceOnUse">
<stop stop-color="#E1B555"/>
<stop offset="1" stop-color="#BD7B34"/>
</linearGradient>
</defs>
</svg>
